<?xml version="1.0" standalone="no"?>
<!DOCTYPE svg PUBLIC "-//W3C//DTD SVG 20010904//EN"
 "http://www.w3.org/TR/2001/REC-SVG-20010904/DTD/svg10.dtd">
<svg version="1.0" xmlns="http://www.w3.org/2000/svg"
 width="640.000000pt" height="217.000000pt" viewBox="0 0 640.000000 217.000000"
 preserveAspectRatio="xMidYMid meet">

<g transform="translate(0.000000,217.000000) scale(0.100000,-0.100000)"
fill="#000000" stroke="none">
<path d="M640 2131 c-185 -48 -360 -165 -476 -321 -44 -59 -104 -188 -126
-269 -28 -106 -28 -277 1 -385 76 -286 304 -510 596 -587 112 -30 297 -30 410
0 272 72 463 272 519 543 16 76 22 251 10 282 -5 14 -47 16 -370 16 l-364 0 0
-105 0 -105 260 0 260 0 0 -24 c0 -37 -35 -140 -64 -189 -53 -92 -179 -180
-303 -212 -77 -21 -235 -20 -315 0 -187 49 -344 199 -404 389 -47 149 -33 319
39 466 43 89 159 204 248 247 209 101 451 81 623 -51 l49 -38 74 74 74 74 -58
46 c-79 62 -153 102 -248 134 -109 37 -320 44 -435 15z"/>
<path d="M2084 1565 c-171 -37 -314 -164 -376 -331 -17 -48 -21 -81 -21 -174
0 -93 4 -126 21 -174 86 -233 325 -375 570 -338 190 30 348 158 414 338 31 85
31 263 0 348 -91 248 -347 388 -608 331z m203 -200 c59 -18 133 -78 167 -138
76 -132 48 -310 -66 -412 -79 -71 -171 -91 -278 -59 -73 22 -159 107 -186 184
-29 84 -25 193 10 264 68 138 210 203 353 161z"/>
<path d="M4343 1565 c-189 -42 -352 -210 -392 -403 -57 -275 126 -551 403
-608 115 -24 234 3 313 71 23 19 44 35 47 35 3 0 6 -35 6 -79 0 -99 -22 -169
-72 -225 -117 -134 -367 -102 -453 58 -11 20 -22 36 -26 36 -3 0 -47 -17 -98
-38 l-91 -39 38 -59 c22 -32 61 -80 88 -105 99 -92 195 -129 334 -129 256 0
423 135 474 382 13 64 16 161 16 583 l0 505 -105 0 -105 0 0 -45 c0 -25 -3
-45 -6 -45 -3 0 -24 16 -47 35 -79 68 -209 96 -324 70z m233 -213 c56 -29 119
-102 141 -165 27 -77 24 -207 -5 -272 -104 -229 -408 -233 -519 -7 -24 50 -28
69 -28 147 0 97 10 133 58 203 31 46 84 86 144 108 53 20 157 13 209 -14z"/>
<path d="M5768 1564 c-87 -21 -156 -60 -224 -128 -101 -101 -147 -216 -147
-371 0 -156 46 -270 152 -375 150 -149 374 -190 569 -104 71 31 141 83 185
138 l36 43 -85 57 -85 57 -45 -46 c-65 -67 -121 -90 -219 -90 -69 1 -87 4
-133 30 -49 27 -112 94 -112 120 0 7 155 76 344 155 l345 142 -20 52 c-98 250
-322 378 -561 320z m229 -205 c42 -21 83 -61 83 -83 0 -11 -432 -196 -457
-196 -8 0 -10 12 -7 38 21 151 138 262 278 262 40 0 74 -7 103 -21z"/>
</g>
</svg>
