<svg version="1.1" id="Layer_1" xmlns="http://www.w3.org/2000/svg" xmlns:xlink="http://www.w3.org/1999/xlink" x="0px" y="0px"
	 width="100%" viewBox="0 0 4096 1067" enable-background="new 0 0 4096 1067" xml:space="preserve">
<path fill="#000000" opacity="1.000000" stroke="none" 
	d="
M4098.000000,348.000000 
	C4098.000000,588.577515 4098.000000,829.155029 4098.000000,1070.000000 
	C3590.610596,1070.000000 3083.221191,1070.000000 2574.226562,1069.398926 
	C2574.948730,1067.802368 2577.189941,1066.447754 2579.616699,1065.866577 
	C2608.710205,1058.897461 2633.108643,1044.374512 2652.082764,1021.078064 
	C2676.325928,991.312439 2687.993652,956.938110 2688.246338,918.824951 
	C2688.607910,864.186340 2688.458008,809.543152 2688.246582,754.903015 
	C2688.198975,742.640564 2687.521240,730.326721 2686.230957,718.132019 
	C2679.886719,658.158630 2639.911621,618.984558 2586.710938,604.042053 
	C2554.049316,594.868347 2520.799805,596.221252 2487.879150,602.703491 
	C2448.412109,610.474670 2420.027832,632.768127 2402.597412,669.429138 
	C2388.916748,698.203369 2383.803711,728.675537 2382.444092,759.981201 
	C2381.535156,780.917542 2383.624268,801.721863 2387.862793,822.297913 
	C2394.671143,855.349976 2410.847656,883.132141 2435.727051,905.597900 
	C2462.569336,929.835938 2494.612061,939.968994 2530.501221,936.853943 
	C2558.148926,934.454163 2581.512939,923.145264 2598.746094,900.660950 
	C2599.992676,899.034241 2601.601562,897.684998 2603.976074,895.248718 
	C2605.307129,914.965332 2603.297363,932.698547 2597.059570,949.651672 
	C2588.997070,971.564270 2573.699463,987.356079 2551.072266,993.125732 
	C2524.845459,999.813232 2502.528564,990.540100 2485.214355,970.174194 
	C2480.916748,965.119202 2476.967773,962.786987 2470.293457,962.897644 
	C2446.644287,963.289612 2422.984863,963.029358 2399.329346,963.079407 
	C2396.483887,963.085449 2393.639404,963.478516 2389.754883,963.770203 
	C2392.899658,971.792053 2395.326172,978.972778 2398.474854,985.821289 
	C2406.866943,1004.073669 2417.446045,1020.766296 2432.781982,1034.220459 
	C2450.510742,1049.773682 2471.150391,1059.016479 2493.960693,1063.932739 
	C2498.499023,1064.911011 2503.108154,1065.593506 2507.596436,1066.753662 
	C2509.166504,1067.159668 2510.586426,1068.578613 2508.000000,1070.000000 
	C1672.897339,1070.000000 837.794678,1070.000000 2.000000,1070.000000 
	C2.000000,901.277893 2.000000,732.554871 2.781960,563.032104 
	C4.320665,564.299194 5.407894,566.308228 5.780948,568.442078 
	C8.357648,583.181091 10.091849,598.102478 13.377042,612.676636 
	C30.805712,689.995667 68.924728,756.360291 122.156235,814.321045 
	C152.474335,847.332825 186.869781,875.792175 224.223633,900.554138 
	C308.329315,956.308105 400.806396,991.942566 498.869843,1013.855225 
	C566.276672,1028.917603 634.570862,1037.642944 703.597046,1039.421875 
	C755.180237,1040.751587 806.849854,1041.792969 858.292908,1036.037476 
	C890.680786,1032.413940 923.150146,1029.104004 955.313354,1023.965515 
	C1048.029541,1009.152832 1136.742676,981.672424 1220.236206,938.107422 
	C1285.224243,904.197998 1343.501587,861.621704 1392.338989,806.636963 
	C1418.119019,777.612000 1440.313599,746.061340 1457.885620,711.429077 
	C1483.023193,661.886047 1499.450562,609.648804 1502.050781,553.917908 
	C1503.474243,523.409119 1503.687500,492.700867 1501.974121,462.221558 
	C1499.256348,413.877563 1483.312988,369.099457 1460.114014,326.858917 
	C1429.705322,271.491058 1388.296387,225.472778 1339.486084,185.823654 
	C1288.721802,144.587418 1232.783081,111.941422 1173.081909,85.500641 
	C1107.907837,56.635998 1040.111938,36.150761 970.317322,22.191750 
	C932.108765,14.549982 893.576843,8.901218 854.681030,6.003055 
	C851.840576,5.791414 848.317139,6.513197 848.000000,2.000000 
	C1931.333374,2.000000 3014.666748,2.000000 4098.000000,2.000000 
	C4098.000000,85.540619 4098.000000,168.854401 4097.261719,253.072235 
	C4095.562744,251.957947 4094.483398,249.986664 4093.659912,247.913773 
	C4088.264893,234.329803 4084.018799,220.160950 4077.362793,207.230179 
	C4057.187744,168.035110 4025.822998,142.787109 3982.149414,133.334167 
	C3963.698486,129.340576 3945.136230,129.697739 3926.505615,129.466278 
	C3908.664062,129.244629 3891.342041,132.171799 3874.415039,137.448425 
	C3828.391357,151.795410 3801.307617,185.253189 3784.017578,228.180878 
	C3773.913818,253.266251 3771.228027,279.563538 3771.626953,306.494995 
	C3772.126465,340.230347 3780.416260,371.532349 3797.365967,400.674622 
	C3818.173828,436.450439 3848.979248,458.392670 3889.229248,466.984436 
	C3915.817139,472.659882 3942.730469,473.310120 3969.609375,469.267639 
	C3994.292480,465.555420 4017.411133,457.505249 4037.568115,442.239655 
	C4054.589844,429.348389 4067.976318,413.212799 4077.364258,394.207062 
	C4083.668213,381.444733 4088.021729,367.722717 4093.352783,354.472321 
	C4094.348877,351.996277 4093.408447,347.953796 4098.000000,348.000000 
M1733.773315,405.000000 
	C1733.773315,424.222778 1733.773315,443.445557 1733.773315,463.271088 
	C1760.301636,463.271088 1785.386353,463.271088 1811.788086,463.271088 
	C1811.788086,458.653076 1811.788208,454.741425 1811.788208,450.829803 
	C1811.787720,391.164307 1811.824829,331.498779 1811.746094,271.833405 
	C1811.734009,262.739044 1812.778076,253.914093 1816.112061,245.407135 
	C1831.052368,207.285812 1877.866821,202.301865 1903.459839,219.671783 
	C1908.006470,222.757614 1911.956543,227.219009 1915.091309,231.792847 
	C1923.498535,244.059357 1925.666626,258.285736 1925.706909,272.740753 
	C1925.872314,332.072449 1925.760620,391.404877 1925.810303,450.737000 
	C1925.813843,454.905609 1926.297241,459.073822 1926.541016,462.977356 
	C1942.942627,465.261688 1996.354004,464.430542 2003.788086,461.669891 
	C2003.788086,458.015900 2003.788086,454.053345 2003.788086,450.090790 
	C2003.787842,391.425293 2003.787231,332.759766 2003.787720,274.094269 
	C2003.787720,271.427673 2003.731201,268.759155 2003.809814,266.094788 
	C2004.640259,237.985321 2022.754639,217.016235 2050.288818,211.383331 
	C2059.391113,209.521149 2068.149902,210.135147 2077.002441,211.907196 
	C2094.009521,215.311539 2106.400635,224.945251 2111.987305,241.307327 
	C2115.265381,250.907425 2117.443848,261.385468 2117.529297,271.490479 
	C2118.032715,331.151672 2117.762939,390.819336 2117.807373,450.484772 
	C2117.810547,454.675934 2118.248047,458.866730 2118.468506,462.788635 
	C2131.886475,465.029083 2187.921875,464.419830 2195.781494,461.828430 
	C2195.781494,458.217804 2195.781494,454.275604 2195.781494,450.333405 
	C2195.781250,390.667938 2195.704834,331.002289 2195.831543,271.337097 
	C2195.865723,255.237610 2193.954834,239.431229 2189.643555,223.978592 
	C2180.192627,190.107117 2161.491943,163.117340 2130.023926,146.119308 
	C2113.689209,137.295761 2096.076416,133.104568 2077.557373,131.236572 
	C2040.531006,127.501701 2007.572876,136.071182 1979.316162,160.833969 
	C1974.644409,164.928177 1970.041870,169.101471 1964.669067,173.897247 
	C1961.497559,170.434021 1958.638794,167.189102 1955.649536,164.069260 
	C1940.164062,147.906937 1921.115967,138.238037 1899.414185,133.575226 
	C1882.355957,129.910095 1865.259521,129.205093 1847.856323,131.737335 
	C1819.599487,135.848923 1794.589233,146.584137 1774.339111,166.844498 
	C1746.792725,194.404556 1734.204346,228.452637 1733.869263,267.003510 
	C1733.475342,312.332520 1733.774292,357.667572 1733.773315,405.000000 
M1751.396118,668.348572 
	C1738.898682,690.282288 1733.847290,714.240723 1733.777344,739.102295 
	C1733.501099,837.404297 1733.656128,935.707397 1733.689087,1034.010132 
	C1733.689941,1036.528320 1734.126221,1039.046265 1734.311646,1041.048218 
	C1750.666870,1041.048218 1766.302002,1041.779297 1781.840820,1040.868164 
	C1802.515869,1039.655640 1819.128418,1019.478394 1818.572510,999.553711 
	C1817.689941,967.921570 1818.337036,936.246704 1818.337036,904.589905 
	C1818.337036,901.409363 1818.337036,898.228821 1818.337036,892.638672 
	C1821.759521,896.954651 1823.520386,899.180969 1825.287354,901.402405 
	C1836.725830,915.783936 1850.636230,926.564392 1868.306030,932.522034 
	C1884.344238,937.929565 1900.718872,939.414551 1917.476318,939.131653 
	C1937.535034,938.792847 1956.246338,933.794006 1973.524292,923.681458 
	C2006.391724,904.444519 2024.901245,874.385071 2036.140015,839.183533 
	C2044.309448,813.595703 2046.160889,787.149902 2045.742310,760.409973 
	C2045.250977,729.027100 2039.318359,699.106018 2024.159058,671.301514 
	C2003.310791,633.062561 1972.410156,608.359863 1928.833618,601.617188 
	C1894.900146,596.366516 1861.044312,598.242920 1828.125488,608.159851 
	C1795.487671,617.992188 1769.379272,637.042542 1751.396118,668.348572 
M3474.195557,175.276398 
	C3459.158936,192.772049 3449.647705,213.083115 3443.260742,235.092407 
	C3434.524170,265.199615 3432.471191,295.953827 3434.254639,327.023865 
	C3435.877686,355.289276 3442.915771,382.077942 3457.364014,406.739532 
	C3471.169922,430.305267 3490.371338,447.339630 3515.998047,457.120758 
	C3535.745605,464.658081 3556.111816,468.415771 3577.178955,470.410522 
	C3599.418457,472.516235 3621.044434,470.393707 3642.514648,465.610596 
	C3677.813232,457.746582 3706.459961,439.622070 3725.968506,408.580078 
	C3741.283447,384.211273 3747.572998,357.012177 3747.684814,328.682526 
	C3748.064209,232.734512 3747.798828,136.783936 3747.742920,40.834351 
	C3747.740967,37.612114 3747.340576,34.390110 3747.097168,30.736744 
	C3730.191650,28.547348 3714.440918,30.176090 3699.239014,35.490936 
	C3675.605469,43.753761 3660.643799,62.309170 3661.615723,89.312767 
	C3662.406006,111.272820 3661.906006,133.285263 3661.690674,155.271652 
	C3661.631104,161.359344 3660.544189,167.436951 3659.750244,175.278992 
	C3656.942871,172.032242 3655.487305,170.301788 3653.982178,168.615143 
	C3641.162109,154.248398 3626.688477,142.418167 3607.811279,136.628418 
	C3585.199951,129.693222 3562.507812,130.272644 3539.731689,135.028488 
	C3513.642578,140.476044 3492.584961,154.438751 3474.195557,175.276398 
M2330.667969,462.457367 
	C2368.396240,475.085114 2406.651855,475.898865 2444.809814,465.600830 
	C2486.154297,454.442902 2516.998535,429.498535 2536.386719,391.016571 
	C2538.544922,386.733490 2539.712402,381.951355 2541.395508,377.243896 
	C2539.261719,376.639435 2538.315918,376.139465 2537.369385,376.137177 
	C2510.378906,376.071777 2483.387939,376.138763 2456.398438,375.948486 
	C2452.107666,375.918243 2449.701172,378.055634 2447.331299,381.017212 
	C2440.671875,389.339081 2432.075439,394.673370 2421.891846,397.794861 
	C2409.575928,401.570007 2396.951660,402.308685 2384.310059,401.403748 
	C2354.135254,399.243622 2331.987061,385.102722 2320.324951,356.491913 
	C2316.465088,347.023254 2314.492920,337.095123 2315.024170,325.518829 
	C2319.847900,325.518829 2323.761963,325.518829 2327.676025,325.518829 
	C2395.653564,325.518829 2463.631104,325.519135 2531.608643,325.517700 
	C2534.274414,325.517639 2536.946045,325.613251 2539.604736,325.471283 
	C2546.784668,325.087891 2547.786865,324.421692 2547.682373,317.207672 
	C2547.479736,303.254974 2546.768799,289.309937 2546.298584,275.360748 
	C2545.651367,256.165283 2541.487549,237.702820 2533.724609,220.206375 
	C2517.361328,183.325684 2491.968994,155.567322 2452.944092,141.984894 
	C2419.102539,130.206573 2384.349609,127.888504 2349.567383,135.264954 
	C2289.538330,147.995605 2251.350586,184.899521 2235.814697,244.237213 
	C2229.318848,269.047699 2227.168457,294.444580 2229.392578,320.315094 
	C2230.708984,335.629883 2232.237793,350.780273 2236.087891,365.624756 
	C2242.054688,388.629852 2252.554932,409.432800 2269.850586,425.863434 
	C2286.898438,442.058685 2306.915039,454.015198 2330.667969,462.457367 
M2918.504150,937.408936 
	C2966.177246,930.588684 3001.964600,906.571960 3025.034912,863.997437 
	C3039.223877,837.812866 3046.398193,809.861511 3047.832031,780.142761 
	C3049.841797,738.484497 3041.305176,699.683594 3019.084473,664.044556 
	C2999.487061,632.613770 2972.071289,612.157837 2936.087646,603.248352 
	C2912.630371,597.440308 2888.895752,596.053833 2864.812012,597.921265 
	C2839.931885,599.850464 2816.275391,605.580444 2794.616699,618.283386 
	C2760.272461,638.426636 2740.560547,669.984802 2728.750488,706.561401 
	C2716.443848,744.676636 2716.337158,783.629150 2726.121826,822.545288 
	C2733.503174,851.902283 2747.676514,877.761780 2768.581299,899.332520 
	C2788.093750,919.466492 2812.929688,930.659363 2840.379639,935.949402 
	C2865.740967,940.836914 2891.231689,941.186646 2918.504150,937.408936 
M2266.547607,710.754822 
	C2262.773193,722.520264 2252.737061,726.761108 2242.328857,729.184265 
	C2229.089844,732.266479 2215.544678,734.246521 2202.033691,735.902283 
	C2178.249268,738.816895 2154.560303,741.965149 2131.835205,750.045532 
	C2103.324219,760.183228 2082.367676,778.195435 2072.411865,807.462830 
	C2065.705566,827.177856 2066.079346,847.601746 2069.087402,867.673157 
	C2071.572266,884.254517 2078.999756,899.096680 2091.196289,911.420593 
	C2105.843018,926.220032 2123.677246,934.103333 2143.680176,938.007935 
	C2161.776367,941.540222 2180.095703,941.304321 2198.392334,941.046509 
	C2225.486328,940.664734 2252.114502,937.222229 2277.708984,927.814392 
	C2302.802979,918.590515 2323.554688,903.757568 2337.450684,880.458374 
	C2347.752930,863.184509 2352.045898,844.073364 2352.218018,824.240479 
	C2352.593994,780.921753 2352.856445,737.589294 2352.177246,694.277893 
	C2351.584473,656.458435 2334.864502,629.354431 2298.093994,615.332520 
	C2253.069824,598.163330 2207.207520,596.207031 2160.945801,606.850403 
	C2117.436768,616.860413 2090.041748,644.384094 2080.582764,688.588013 
	C2078.942383,696.253967 2078.287109,704.130676 2077.090088,712.517029 
	C2105.430176,712.517029 2132.270508,712.517029 2159.018555,712.517029 
	C2160.873535,706.627441 2162.265869,701.161377 2164.306885,695.949341 
	C2168.218750,685.959900 2174.652344,677.810242 2184.966064,674.171265 
	C2207.115723,666.356262 2229.302490,667.097168 2251.221436,675.512085 
	C2262.133301,679.701172 2266.878418,688.232483 2267.613770,699.373718 
	C2267.831787,702.672974 2267.448730,706.011841 2266.547607,710.754822 
M3159.557617,451.508759 
	C3169.467285,458.554779 3180.342285,463.805267 3192.262695,465.836090 
	C3206.966797,468.341156 3221.825928,470.393188 3236.699707,471.293732 
	C3247.915283,471.972778 3259.261230,470.567322 3270.546143,470.030334 
	C3296.732666,468.784393 3321.996338,463.663177 3345.882080,452.441193 
	C3384.764404,434.173553 3406.385498,403.389313 3407.799072,360.807892 
	C3409.378906,313.216339 3409.275879,265.498291 3407.802246,217.900391 
	C3406.788086,185.139908 3390.924072,160.458267 3359.362061,147.364746 
	C3311.493652,127.506264 3262.459229,125.138161 3212.710938,137.971634 
	C3178.652344,146.757690 3154.260498,167.514236 3141.862061,201.009155 
	C3137.016846,214.098358 3134.192871,227.689117 3134.038330,242.802078 
	C3138.365723,243.073059 3141.910400,243.475464 3145.456055,243.487045 
	C3164.780273,243.550125 3184.104492,243.481094 3203.428711,243.529541 
	C3216.282715,243.561768 3215.542236,242.610580 3218.392822,232.347473 
	C3224.258545,211.228317 3237.702637,200.678879 3259.645996,199.691071 
	C3268.614014,199.287384 3277.716553,199.043762 3286.585938,200.129791 
	C3294.387695,201.085083 3302.550049,202.796967 3309.503174,206.274323 
	C3328.604736,215.827484 3329.694824,242.693085 3311.387451,253.445724 
	C3304.404785,257.547028 3296.052490,259.971954 3288.009521,261.469543 
	C3273.316406,264.205200 3258.398926,265.758240 3243.556641,267.663910 
	C3222.036377,270.427124 3200.779297,274.302795 3180.668457,282.809418 
	C3155.050293,293.645599 3137.291748,311.852478 3128.542725,338.584991 
	C3124.111084,352.125916 3123.473389,365.992615 3123.761963,380.035583 
	C3124.356689,408.961884 3134.269287,433.282928 3159.557617,451.508759 
M2909.604980,389.634491 
	C2893.453125,377.935516 2886.230713,360.983063 2882.362305,342.315704 
	C2877.731689,319.970734 2878.611328,297.317413 2880.678223,274.829559 
	C2881.580811,265.008850 2884.353516,255.128815 2887.755371,245.815674 
	C2895.546143,224.487213 2909.731689,209.255997 2932.887207,204.926514 
	C2940.955811,203.417862 2949.480957,203.598602 2957.743896,204.030792 
	C2977.049805,205.040573 2990.941895,214.931168 2999.772217,231.862762 
	C3002.214355,236.544998 3003.773926,241.734924 3005.343750,246.813751 
	C3007.975098,255.324570 3007.841064,255.484024 3016.859375,255.509109 
	C3040.857910,255.575836 3064.856934,255.563721 3088.855469,255.486877 
	C3091.695801,255.477783 3094.534180,254.871399 3097.705811,254.503311 
	C3097.705811,250.933472 3098.172119,248.215988 3097.625244,245.720490 
	C3095.205078,234.677078 3093.191406,223.473053 3089.739502,212.742462 
	C3082.963623,191.678497 3071.272705,173.721039 3053.232422,160.369019 
	C3040.208252,150.729446 3025.587646,144.325363 3010.113525,139.928375 
	C2978.927734,131.066849 2947.197998,129.144562 2915.146240,133.742599 
	C2857.508789,142.011139 2818.294678,173.626038 2797.839844,228.007721 
	C2786.513184,258.120728 2784.547363,289.669006 2786.053223,321.509613 
	C2787.261719,347.059418 2792.864502,371.534698 2804.080322,394.670288 
	C2821.160645,429.902374 2847.940430,453.606659 2885.927490,464.092438 
	C2913.551514,471.717621 2941.587646,473.143402 2970.042969,470.082275 
	C3031.034912,463.521027 3074.437988,426.055817 3092.563477,370.224152 
	C3095.170410,362.194794 3096.136719,353.632782 3097.842285,345.412750 
	C3087.691162,342.808075 3015.149414,342.934326 3007.066162,345.246918 
	C3004.703857,353.102875 3002.845215,361.245453 2999.821289,368.929382 
	C2993.690918,384.507935 2982.624023,394.891815 2965.817139,398.233673 
	C2946.607910,402.053253 2928.020508,401.057648 2909.604980,389.634491 
M2725.211914,219.686188 
	C2740.998291,218.727097 2756.784668,217.768005 2773.727295,216.738663 
	C2773.799316,188.789215 2773.837158,161.019943 2773.721436,132.606842 
	C2768.407715,132.168945 2764.503174,131.617111 2760.591797,131.563492 
	C2740.531982,131.288437 2720.692627,133.461700 2701.226562,138.207733 
	C2673.125732,145.058945 2648.015869,157.887878 2628.123779,179.117752 
	C2600.749023,208.333405 2587.391113,244.054886 2586.531250,283.489441 
	C2585.297119,340.103973 2586.205078,396.765472 2586.247070,453.406891 
	C2586.249268,456.613892 2586.690918,459.820557 2586.951904,463.348206 
	C2615.395264,463.348206 2642.866455,463.348206 2671.224609,463.348206 
	C2671.432861,458.830658 2671.766357,454.934814 2671.768799,451.038757 
	C2671.802246,401.727417 2671.590820,352.414642 2671.934570,303.105682 
	C2672.012939,291.863556 2673.157959,280.483093 2675.221436,269.429352 
	C2680.259277,242.439560 2696.403564,225.686386 2725.211914,219.686188 
z"/>
<path fill="#2A336C" opacity="1.000000" stroke="none" 
	d="
M847.062683,2.000000 
	C848.317139,6.513197 851.840576,5.791414 854.681030,6.003055 
	C893.576843,8.901218 932.108765,14.549982 970.317322,22.191750 
	C1040.111938,36.150761 1107.907837,56.635998 1173.081909,85.500641 
	C1232.783081,111.941422 1288.721802,144.587418 1339.486084,185.823654 
	C1388.296387,225.472778 1429.705322,271.491058 1460.114014,326.858917 
	C1483.312988,369.099457 1499.256348,413.877563 1501.974121,462.221558 
	C1503.687500,492.700867 1503.474243,523.409119 1502.050781,553.917908 
	C1499.450562,609.648804 1483.023193,661.886047 1457.885620,711.429077 
	C1440.313599,746.061340 1418.119019,777.612000 1392.338989,806.636963 
	C1343.501587,861.621704 1285.224243,904.197998 1220.236206,938.107422 
	C1136.742676,981.672424 1048.029541,1009.152832 955.313354,1023.965515 
	C923.150146,1029.104004 890.680786,1032.413940 858.292908,1036.037476 
	C806.849854,1041.792969 755.180237,1040.751587 703.597046,1039.421875 
	C634.570862,1037.642944 566.276672,1028.917603 498.869843,1013.855225 
	C400.806396,991.942566 308.329315,956.308105 224.223633,900.554138 
	C186.869781,875.792175 152.474335,847.332825 122.156235,814.321045 
	C68.924728,756.360291 30.805712,689.995667 13.377042,612.676636 
	C10.091849,598.102478 8.357648,583.181091 5.780948,568.442078 
	C5.407894,566.308228 4.320665,564.299194 2.781960,562.116211 
	C2.000000,527.291565 2.000000,492.583099 2.782692,456.887817 
	C4.363529,453.838684 5.617564,451.835266 5.892861,449.705322 
	C12.089713,401.761505 28.527290,357.396179 53.032852,315.964081 
	C78.843208,272.325989 111.730965,234.667282 149.700775,201.095215 
	C193.930466,161.988281 242.982285,130.268661 295.420135,103.645149 
	C343.930389,79.015732 394.544403,59.545353 446.769653,44.279976 
	C488.352478,32.125378 530.447510,22.165331 573.334900,15.950872 
	C599.657898,12.136631 626.119324,9.277538 652.520325,6.003419 
	C655.115540,5.681579 658.160828,6.057986 658.000000,2.000000 
	C720.708435,2.000000 783.416931,2.000000 847.062683,2.000000 
M640.251343,808.788147 
	C632.684937,799.181091 625.118530,789.574097 616.734741,778.929199 
	C599.268494,784.751831 580.913330,782.271973 563.048706,773.978210 
	C544.896240,765.550842 530.883728,752.875732 523.232666,735.282471 
	C471.635895,738.882874 439.911804,715.424805 424.418335,667.916138 
	C396.652802,671.047058 373.129608,663.277344 355.495148,641.520630 
	C337.562164,619.395630 335.862427,594.289673 344.449310,567.495239 
	C338.428131,563.618652 333.002533,559.788635 327.270813,556.490601 
	C292.732269,536.616760 255.626770,522.736877 218.026886,510.049957 
	C159.871796,490.427368 100.049232,477.111816 40.382317,463.217438 
	C38.605907,462.803772 36.713161,462.889709 33.711201,462.649750 
	C33.294521,475.649414 32.227222,487.934845 32.626457,500.172394 
	C34.251221,549.975281 47.322739,596.774231 70.796852,640.683655 
	C97.406372,690.458008 133.714783,732.250793 176.510132,768.645447 
	C233.949127,817.493530 298.769409,853.933594 368.432617,882.071045 
	C487.964050,930.350525 612.785034,951.416565 741.152649,953.460083 
	C787.164062,954.192627 833.059998,951.502075 878.826355,946.398743 
	C935.219482,940.110291 990.752502,929.565125 1045.340332,914.082153 
	C1126.295654,891.120544 1202.978516,858.561951 1273.289062,811.899719 
	C1328.787720,775.067444 1377.633423,731.142090 1415.266235,675.718750 
	C1455.104370,617.047485 1476.933838,552.763489 1474.272339,481.135193 
	C1474.141113,477.605896 1473.770630,474.085480 1473.421753,469.338684 
	C1371.037598,493.069092 1271.878540,522.708923 1175.432983,562.532654 
	C1177.493530,567.557983 1179.149780,571.172729 1180.476562,574.904602 
	C1187.046265,593.383362 1186.779907,611.711365 1177.465698,629.122559 
	C1165.231812,651.991638 1144.864990,663.799194 1119.999146,667.882996 
	C1111.339233,669.305237 1102.249390,668.109680 1092.974243,668.109680 
	C1092.596313,670.834900 1092.236816,672.746887 1092.078491,674.675537 
	C1090.684204,691.671143 1083.918457,706.204224 1071.652954,717.983337 
	C1052.761963,736.125244 1030.498657,745.883423 1003.885681,744.384888 
	C1000.682556,744.204590 997.460449,744.360474 994.110718,744.360474 
	C988.086487,765.882996 973.980469,779.862366 955.868774,790.549622 
	C936.982605,801.693848 916.813599,802.519531 895.662598,797.741638 
	C886.436523,812.514160 872.722046,820.388672 856.555847,823.677490 
	C847.174683,825.585999 837.413452,826.451660 827.833008,826.385071 
	C807.084534,826.240906 788.049561,819.039001 769.514709,810.386169 
	C766.246460,808.860474 762.960510,807.372498 759.760132,805.902649 
	C758.291809,807.045471 757.219299,807.820923 756.211548,808.673157 
	C720.669617,838.729675 677.761963,839.129272 640.251343,808.788147 
M1076.479980,510.522491 
	C1049.241333,486.995300 1022.200623,463.234070 994.718933,439.994293 
	C950.445251,402.554413 906.070251,365.228271 861.301270,328.384796 
	C850.574341,319.556793 838.500610,312.161896 826.381287,305.278870 
	C809.976318,295.961945 792.083496,292.794586 773.299866,296.256561 
	C760.031616,298.702057 747.501038,303.558289 736.377441,310.908936 
	C716.117615,324.296875 696.393066,338.503387 676.598938,352.584412 
	C662.489868,362.621216 649.024963,373.606934 634.586853,383.129486 
	C595.639771,408.816711 554.670227,406.732941 513.386108,389.781128 
	C505.960297,386.731995 499.064819,381.111603 493.442047,375.228058 
	C483.019714,364.322205 482.664215,350.115417 491.160370,337.672485 
	C493.029297,334.935455 495.240326,332.401459 497.503021,329.968506 
	C520.653625,305.075745 543.852356,280.227814 567.007874,255.339691 
	C567.789062,254.499969 568.256775,253.368591 569.501282,251.350510 
	C565.422119,252.011093 562.457764,252.264923 559.614441,252.992172 
	C549.302002,255.629822 538.836121,257.853333 528.776428,261.261322 
	C483.904694,276.462982 438.666107,276.483704 392.821838,266.243835 
	C347.944305,256.219910 303.804199,243.687897 260.321472,228.837784 
	C237.370026,220.999481 214.662933,212.445755 190.936920,203.887283 
	C117.506157,263.576324 60.644703,334.708923 38.935593,430.797119 
	C53.579342,434.782135 66.980362,438.562073 80.452469,442.068939 
	C113.940582,450.786072 147.714722,458.510468 180.914062,468.208069 
	C243.613739,486.522827 305.362122,507.437134 361.173889,543.958923 
	C376.660553,529.767456 394.945251,522.395325 416.417847,523.525513 
	C437.906952,524.656738 454.798615,534.915833 469.042114,550.166809 
	C489.865295,536.090637 511.922791,532.527588 535.549011,537.372253 
	C559.272034,542.236755 577.759277,554.589417 589.443359,575.903076 
	C617.644165,567.394592 643.243103,571.679871 666.348572,587.891785 
	C690.973450,605.169739 695.866211,631.478455 695.778687,659.584412 
	C727.539978,660.432983 752.746277,672.696045 769.910461,698.893250 
	C787.065979,725.076965 788.206421,753.060791 776.257080,782.043152 
	C789.744568,789.871033 803.719727,795.036682 818.503662,797.645874 
	C831.812500,799.994751 845.088501,799.229309 857.822327,794.102356 
	C863.703613,791.734436 869.106689,788.725769 871.533203,782.153564 
	C869.781738,780.052856 868.362671,778.218506 866.808411,776.506897 
	C849.332703,757.260986 831.809753,738.057922 814.375732,718.774353 
	C811.939514,716.079651 809.698547,713.150635 807.754211,710.084656 
	C805.617981,706.715820 805.380005,703.177795 808.498047,700.047607 
	C811.541931,696.991943 815.313843,696.955750 818.652527,698.734985 
	C822.427795,700.746826 826.025757,703.340637 829.163513,706.259094 
	C849.656616,725.320496 869.973022,744.571655 890.434387,763.667419 
	C893.308411,766.349609 896.313599,769.418518 899.846863,770.777222 
	C916.812439,777.301147 943.753662,773.568848 957.514709,754.723145 
	C964.422974,745.262268 964.697205,735.659546 958.914185,725.806091 
	C957.080627,722.681946 954.596802,719.896667 952.170288,717.170166 
	C930.678467,693.020569 909.097900,668.949768 887.651184,644.760315 
	C885.261841,642.065308 882.982056,639.005127 881.635864,635.711975 
	C879.234009,629.836243 883.154602,624.648254 889.379211,625.504700 
	C892.511475,625.935669 895.746155,627.519836 898.362549,629.384827 
	C902.959656,632.661743 907.332764,636.329041 911.423218,640.227905 
	C933.857971,661.612122 956.280396,683.011536 978.478271,704.640625 
	C985.500854,711.483215 993.644470,715.219482 1003.195862,716.410339 
	C1021.015076,718.632202 1035.947998,711.999329 1049.082397,700.830872 
	C1067.690186,685.008362 1069.055542,662.679504 1052.937134,644.457764 
	C1051.172852,642.463318 1049.236206,640.619629 1047.354248,638.731323 
	C1018.177795,609.458862 988.984314,580.203430 959.839966,550.899048 
	C957.268921,548.313843 954.687317,545.629822 952.693848,542.607056 
	C950.173279,538.785095 949.168396,534.532776 953.057617,530.792664 
	C956.508118,527.474609 960.531372,527.974731 964.104492,530.268555 
	C968.288818,532.954773 972.315613,535.983032 976.028442,539.291931 
	C1009.368286,569.004822 1042.694458,598.734070 1075.838501,628.664612 
	C1081.710327,633.967041 1088.131348,637.878113 1095.714844,639.575806 
	C1114.306641,643.737793 1130.767578,638.914185 1144.841187,626.423035 
	C1156.562988,616.019165 1158.800537,602.664978 1154.857056,588.060852 
	C1152.445679,579.131104 1147.163574,571.967224 1140.163452,565.918274 
	C1119.233276,547.832275 1098.405762,529.627747 1076.479980,510.522491 
M680.270996,313.274536 
	C698.727478,299.004364 717.230591,284.759491 738.755310,275.262512 
	C763.878357,264.177887 789.732483,260.140320 816.570312,268.497894 
	C832.673096,273.512482 847.022461,282.061462 860.318115,292.112640 
	C880.506165,307.374390 900.682190,322.732758 919.924744,339.150238 
	C995.714600,403.813049 1071.136719,468.906769 1146.701172,533.833862 
	C1149.416016,536.166504 1152.191162,538.428772 1154.796143,540.605103 
	C1206.193359,518.005859 1257.936035,498.810791 1310.493408,481.743195 
	C1362.902344,464.723816 1416.119751,450.594269 1469.775513,438.071503 
	C1460.707642,390.108887 1441.826904,347.854584 1415.324341,308.866333 
	C1390.834961,272.839386 1361.269287,241.484100 1328.021484,213.637451 
	C1318.734009,217.564819 1310.206543,221.253571 1301.616211,224.789856 
	C1246.342651,247.544052 1189.107666,261.896881 1129.152588,263.428467 
	C1061.696289,265.151672 997.615356,250.312546 936.655029,221.805069 
	C910.018066,209.348572 882.468140,199.711136 853.927673,192.826660 
	C803.953186,180.771927 754.206482,181.643265 704.888062,196.270142 
	C666.624573,207.618332 634.344971,229.278976 606.461670,257.144928 
	C576.778503,286.809662 548.310913,317.692047 519.404846,348.130432 
	C517.195312,350.457092 515.718750,353.479736 513.835999,356.276001 
	C520.975342,366.261749 531.151428,369.695526 541.569275,371.782440 
	C570.433044,377.564484 598.072205,374.893311 622.564331,356.922668 
	C641.624634,342.937531 660.285400,328.407928 680.270996,313.274536 
M414.398529,85.221375 
	C345.019531,108.877800 279.538544,140.285980 218.019363,183.481644 
	C222.330780,185.264999 225.238464,186.612701 228.243301,187.689178 
	C286.607056,208.597717 345.967499,226.112732 406.506989,239.509369 
	C433.075897,245.388733 459.958649,247.483505 486.809418,241.893921 
	C503.409424,238.438263 519.746399,233.685638 536.144897,229.303741 
	C557.745239,223.531845 579.520935,218.992493 601.930969,217.703186 
	C605.598022,217.492188 609.487366,215.554626 612.667664,213.483856 
	C623.822998,206.220398 634.224976,197.681732 645.786011,191.179245 
	C707.388184,156.530945 773.412537,149.190002 842.164795,161.121460 
	C881.125732,167.882843 917.938354,181.296600 953.757385,197.940002 
	C997.968384,218.482712 1044.567383,230.588013 1093.250610,233.890564 
	C1148.855835,237.662674 1202.855469,229.043991 1255.457031,211.187347 
	C1270.836304,205.966507 1285.925049,199.889740 1301.297729,194.149033 
	C1300.402222,192.446701 1300.239380,191.680176 1299.766602,191.311966 
	C1296.616943,188.859589 1293.453613,186.418594 1290.199097,184.108353 
	C1231.910156,142.730682 1168.390869,111.584869 1101.085693,87.997246 
	C994.183777,50.532566 883.862915,32.864300 770.760254,31.295496 
	C711.015808,30.466806 651.545166,33.821476 592.436707,42.500183 
	C532.357483,51.321423 473.411530,65.092377 414.398529,85.221375 
M526.345154,703.821106 
	C530.092285,701.669800 533.703247,699.216003 537.624268,697.450928 
	C541.652161,695.637695 544.806580,697.553711 545.604431,701.893738 
	C545.899597,703.499146 545.653320,705.208618 545.617126,706.869812 
	C545.002869,735.064880 574.753418,759.772888 602.989685,754.749512 
	C612.295471,753.093933 619.321899,747.839783 626.367004,742.124207 
	C633.843323,736.058716 638.263855,738.075012 639.612915,747.721985 
	C640.164795,751.667725 640.241211,755.717773 641.170044,759.566895 
	C648.005310,787.893188 672.782410,805.766724 702.717346,804.144531 
	C729.198242,802.709534 752.682800,780.890259 756.199036,754.455078 
	C760.012878,725.782715 743.760803,699.416748 716.721558,690.180664 
	C702.439819,685.302307 688.568115,686.923157 674.746094,692.068420 
	C671.149963,693.407104 667.027832,696.067261 663.533447,692.595032 
	C659.881409,688.966064 661.924622,684.546265 663.360291,680.454651 
	C663.801025,679.198486 664.174927,677.919128 664.593506,676.655029 
	C668.534912,664.751953 669.560364,652.520142 668.007996,640.159546 
	C666.201782,625.776978 659.310120,614.335815 646.501465,607.143982 
	C626.069824,595.671997 601.276794,594.201843 582.686646,611.982605 
	C576.502930,617.897095 573.029175,616.515564 571.147888,608.370056 
	C570.848511,607.073730 570.660217,605.751282 570.432434,604.438904 
	C566.291626,580.581421 551.789429,566.763550 527.774719,563.848267 
	C500.865112,560.581543 480.665039,571.743469 465.112671,592.970825 
	C463.304810,595.438354 462.607727,599.103088 458.730469,599.928894 
	C454.430939,569.612732 441.235992,554.013611 417.326630,550.631714 
	C398.479279,547.965759 378.400421,559.462830 370.297760,577.560120 
	C362.010864,596.068909 367.057648,617.939148 382.639496,631.043091 
	C401.017151,646.498230 420.371124,645.336792 447.061310,627.169861 
	C452.079498,629.389771 451.626251,633.551270 451.497498,638.088379 
	C451.272552,646.014343 450.903778,654.098206 452.125397,661.875549 
	C457.731384,697.566162 499.367767,718.668091 526.345154,703.821106 
z"/>
<path fill="#4FB3E8" opacity="1.000000" stroke="none" 
	d="
M2508.937256,1070.000000 
	C2510.586426,1068.578613 2509.166504,1067.159668 2507.596436,1066.753662 
	C2503.108154,1065.593506 2498.499023,1064.911011 2493.960693,1063.932739 
	C2471.150391,1059.016479 2450.510742,1049.773682 2432.781982,1034.220459 
	C2417.446045,1020.766296 2406.866943,1004.073669 2398.474854,985.821289 
	C2395.326172,978.972778 2392.899658,971.792053 2389.754883,963.770203 
	C2393.639404,963.478516 2396.483887,963.085449 2399.329346,963.079407 
	C2422.984863,963.029358 2446.644287,963.289612 2470.293457,962.897644 
	C2476.967773,962.786987 2480.916748,965.119202 2485.214355,970.174194 
	C2502.528564,990.540100 2524.845459,999.813232 2551.072266,993.125732 
	C2573.699463,987.356079 2588.997070,971.564270 2597.059570,949.651672 
	C2603.297363,932.698547 2605.307129,914.965332 2603.976074,895.248718 
	C2601.601562,897.684998 2599.992676,899.034241 2598.746094,900.660950 
	C2581.512939,923.145264 2558.148926,934.454163 2530.501221,936.853943 
	C2494.612061,939.968994 2462.569336,929.835938 2435.727051,905.597900 
	C2410.847656,883.132141 2394.671143,855.349976 2387.862793,822.297913 
	C2383.624268,801.721863 2381.535156,780.917542 2382.444092,759.981201 
	C2383.803711,728.675537 2388.916748,698.203369 2402.597412,669.429138 
	C2420.027832,632.768127 2448.412109,610.474670 2487.879150,602.703491 
	C2520.799805,596.221252 2554.049316,594.868347 2586.710938,604.042053 
	C2639.911621,618.984558 2679.886719,658.158630 2686.230957,718.132019 
	C2687.521240,730.326721 2688.198975,742.640564 2688.246582,754.903015 
	C2688.458008,809.543152 2688.607910,864.186340 2688.246338,918.824951 
	C2687.993652,956.938110 2676.325928,991.312439 2652.082764,1021.078064 
	C2633.108643,1044.374512 2608.710205,1058.897461 2579.616699,1065.866577 
	C2577.189941,1066.447754 2574.948730,1067.802368 2573.310547,1069.398926 
	C2552.624756,1070.000000 2531.249756,1070.000000 2508.937256,1070.000000 
M2578.962646,850.046936 
	C2588.525146,840.359863 2594.689697,828.822083 2598.283203,815.715454 
	C2603.430908,796.940918 2605.261230,777.817261 2604.200684,758.483215 
	C2603.171631,739.723450 2599.002930,721.644714 2589.946533,704.944275 
	C2579.659912,685.975098 2565.130859,672.743896 2542.551270,671.479614 
	C2510.855225,669.704956 2487.521484,680.613342 2476.446777,712.396301 
	C2464.042969,747.994995 2463.006104,783.984497 2472.371582,820.187805 
	C2477.612793,840.449646 2488.525146,857.252258 2510.112549,862.878967 
	C2534.174561,869.150574 2557.677734,868.440125 2578.962646,850.046936 
z"/>
<path fill="#000000" opacity="1.000000" stroke="none" 
	d="
M657.062683,2.000000 
	C658.160828,6.057986 655.115540,5.681579 652.520325,6.003419 
	C626.119324,9.277538 599.657898,12.136631 573.334900,15.950872 
	C530.447510,22.165331 488.352478,32.125378 446.769653,44.279976 
	C394.544403,59.545353 343.930389,79.015732 295.420135,103.645149 
	C242.982285,130.268661 193.930466,161.988281 149.700775,201.095215 
	C111.730965,234.667282 78.843208,272.325989 53.032852,315.964081 
	C28.527290,357.396179 12.089713,401.761505 5.892861,449.705322 
	C5.617564,451.835266 4.363529,453.838684 2.782692,455.950500 
	C2.000000,304.786011 2.000000,153.572006 2.000000,2.000000 
	C220.041656,2.000000 438.083527,2.000000 657.062683,2.000000 
z"/>
<path fill="#28316A" opacity="1.000000" stroke="none" 
	d="
M4098.000000,347.062683 
	C4093.408447,347.953796 4094.348877,351.996277 4093.352783,354.472321 
	C4088.021729,367.722717 4083.668213,381.444733 4077.364258,394.207062 
	C4067.976318,413.212799 4054.589844,429.348389 4037.568115,442.239655 
	C4017.411133,457.505249 3994.292480,465.555420 3969.609375,469.267639 
	C3942.730469,473.310120 3915.817139,472.659882 3889.229248,466.984436 
	C3848.979248,458.392670 3818.173828,436.450439 3797.365967,400.674622 
	C3780.416260,371.532349 3772.126465,340.230347 3771.626953,306.494995 
	C3771.228027,279.563538 3773.913818,253.266251 3784.017578,228.180878 
	C3801.307617,185.253189 3828.391357,151.795410 3874.415039,137.448425 
	C3891.342041,132.171799 3908.664062,129.244629 3926.505615,129.466278 
	C3945.136230,129.697739 3963.698486,129.340576 3982.149414,133.334167 
	C4025.822998,142.787109 4057.187744,168.035110 4077.362793,207.230179 
	C4084.018799,220.160950 4088.264893,234.329803 4093.659912,247.913773 
	C4094.483398,249.986664 4095.562744,251.957947 4097.261719,253.988129 
	C4098.000000,284.708466 4098.000000,315.416901 4098.000000,347.062683 
M3981.543945,384.668457 
	C3996.737061,371.683807 4003.802734,354.256226 4007.725586,335.396027 
	C4011.043213,319.445068 4011.313965,303.262512 4010.391846,286.950287 
	C4009.671143,274.201569 4007.933350,261.722534 4003.546631,249.840652 
	C3995.200439,227.234070 3981.441895,209.530914 3956.785645,203.292068 
	C3946.482666,200.685043 3935.978760,200.217194 3925.237305,201.384766 
	C3905.929688,203.483383 3890.498291,211.773621 3878.805176,227.277405 
	C3868.038086,241.552994 3863.064697,257.979004 3861.097412,275.379669 
	C3858.467773,298.643402 3858.398926,321.900055 3864.861328,344.655426 
	C3869.098633,359.575256 3876.098877,373.112915 3887.845703,383.668762 
	C3910.926758,404.409302 3954.791016,406.551178 3981.543945,384.668457 
z"/>
<path fill="#28316A" opacity="1.000000" stroke="none" 
	d="
M1733.772949,404.000000 
	C1733.774292,357.667572 1733.475342,312.332520 1733.869263,267.003510 
	C1734.204346,228.452637 1746.792725,194.404556 1774.339111,166.844498 
	C1794.589233,146.584137 1819.599487,135.848923 1847.856323,131.737335 
	C1865.259521,129.205093 1882.355957,129.910095 1899.414185,133.575226 
	C1921.115967,138.238037 1940.164062,147.906937 1955.649536,164.069260 
	C1958.638794,167.189102 1961.497559,170.434021 1964.669067,173.897247 
	C1970.041870,169.101471 1974.644409,164.928177 1979.316162,160.833969 
	C2007.572876,136.071182 2040.531006,127.501701 2077.557373,131.236572 
	C2096.076416,133.104568 2113.689209,137.295761 2130.023926,146.119308 
	C2161.491943,163.117340 2180.192627,190.107117 2189.643555,223.978592 
	C2193.954834,239.431229 2195.865723,255.237610 2195.831543,271.337097 
	C2195.704834,331.002289 2195.781250,390.667938 2195.781494,450.333405 
	C2195.781494,454.275604 2195.781494,458.217804 2195.781494,461.828430 
	C2187.921875,464.419830 2131.886475,465.029083 2118.468506,462.788635 
	C2118.248047,458.866730 2117.810547,454.675934 2117.807373,450.484772 
	C2117.762939,390.819336 2118.032715,331.151672 2117.529297,271.490479 
	C2117.443848,261.385468 2115.265381,250.907425 2111.987305,241.307327 
	C2106.400635,224.945251 2094.009521,215.311539 2077.002441,211.907196 
	C2068.149902,210.135147 2059.391113,209.521149 2050.288818,211.383331 
	C2022.754639,217.016235 2004.640259,237.985321 2003.809814,266.094788 
	C2003.731201,268.759155 2003.787720,271.427673 2003.787720,274.094269 
	C2003.787231,332.759766 2003.787842,391.425293 2003.788086,450.090790 
	C2003.788086,454.053345 2003.788086,458.015900 2003.788086,461.669891 
	C1996.354004,464.430542 1942.942627,465.261688 1926.541016,462.977356 
	C1926.297241,459.073822 1925.813843,454.905609 1925.810303,450.737000 
	C1925.760620,391.404877 1925.872314,332.072449 1925.706909,272.740753 
	C1925.666626,258.285736 1923.498535,244.059357 1915.091309,231.792847 
	C1911.956543,227.219009 1908.006470,222.757614 1903.459839,219.671783 
	C1877.866821,202.301865 1831.052368,207.285812 1816.112061,245.407135 
	C1812.778076,253.914093 1811.734009,262.739044 1811.746094,271.833405 
	C1811.824829,331.498779 1811.787720,391.164307 1811.788208,450.829803 
	C1811.788208,454.741425 1811.788086,458.653076 1811.788086,463.271088 
	C1785.386353,463.271088 1760.301636,463.271088 1733.773315,463.271088 
	C1733.773315,443.445557 1733.773315,424.222778 1733.772949,404.000000 
z"/>
<path fill="#50B3E8" opacity="1.000000" stroke="none" 
	d="
M1751.703613,667.678223 
	C1769.379272,637.042542 1795.487671,617.992188 1828.125488,608.159851 
	C1861.044312,598.242920 1894.900146,596.366516 1928.833618,601.617188 
	C1972.410156,608.359863 2003.310791,633.062561 2024.159058,671.301514 
	C2039.318359,699.106018 2045.250977,729.027100 2045.742310,760.409973 
	C2046.160889,787.149902 2044.309448,813.595703 2036.140015,839.183533 
	C2024.901245,874.385071 2006.391724,904.444519 1973.524292,923.681458 
	C1956.246338,933.794006 1937.535034,938.792847 1917.476318,939.131653 
	C1900.718872,939.414551 1884.344238,937.929565 1868.306030,932.522034 
	C1850.636230,926.564392 1836.725830,915.783936 1825.287354,901.402405 
	C1823.520386,899.180969 1821.759521,896.954651 1818.337036,892.638672 
	C1818.337036,898.228821 1818.337036,901.409363 1818.337036,904.589905 
	C1818.337036,936.246704 1817.689941,967.921570 1818.572510,999.553711 
	C1819.128418,1019.478394 1802.515869,1039.655640 1781.840820,1040.868164 
	C1766.302002,1041.779297 1750.666870,1041.048218 1734.311646,1041.048218 
	C1734.126221,1039.046265 1733.689941,1036.528320 1733.689087,1034.010132 
	C1733.656128,935.707397 1733.501099,837.404297 1733.777344,739.102295 
	C1733.847290,714.240723 1738.898682,690.282288 1751.703613,667.678223 
M1887.149170,672.023987 
	C1882.869873,672.572510 1878.528931,672.828613 1874.321411,673.716980 
	C1846.883179,679.510254 1831.392944,697.614746 1824.367310,723.634277 
	C1818.881958,743.949463 1818.230591,764.744141 1819.523315,785.734375 
	C1820.392456,799.846863 1822.750244,813.600525 1828.740356,826.247437 
	C1847.906128,866.712708 1885.802734,872.451538 1914.511597,861.480530 
	C1932.363892,854.658386 1943.468140,840.420288 1950.119751,823.175293 
	C1963.549927,788.355469 1962.699707,752.914673 1951.078979,717.936401 
	C1944.029907,696.718628 1930.064819,681.036865 1907.545166,674.971741 
	C1901.500122,673.343567 1895.116577,672.972107 1887.149170,672.023987 
z"/>
<path fill="#28316A" opacity="1.000000" stroke="none" 
	d="
M3474.628906,174.712006 
	C3492.584961,154.438751 3513.642578,140.476044 3539.731689,135.028488 
	C3562.507812,130.272644 3585.199951,129.693222 3607.811279,136.628418 
	C3626.688477,142.418167 3641.162109,154.248398 3653.982178,168.615143 
	C3655.487305,170.301788 3656.942871,172.032242 3659.750244,175.278992 
	C3660.544189,167.436951 3661.631104,161.359344 3661.690674,155.271652 
	C3661.906006,133.285263 3662.406006,111.272820 3661.615723,89.312767 
	C3660.643799,62.309170 3675.605469,43.753761 3699.239014,35.490936 
	C3714.440918,30.176090 3730.191650,28.547348 3747.097168,30.736744 
	C3747.340576,34.390110 3747.740967,37.612114 3747.742920,40.834351 
	C3747.798828,136.783936 3748.064209,232.734512 3747.684814,328.682526 
	C3747.572998,357.012177 3741.283447,384.211273 3725.968506,408.580078 
	C3706.459961,439.622070 3677.813232,457.746582 3642.514648,465.610596 
	C3621.044434,470.393707 3599.418457,472.516235 3577.178955,470.410522 
	C3556.111816,468.415771 3535.745605,464.658081 3515.998047,457.120758 
	C3490.371338,447.339630 3471.169922,430.305267 3457.364014,406.739532 
	C3442.915771,382.077942 3435.877686,355.289276 3434.254639,327.023865 
	C3432.471191,295.953827 3434.524170,265.199615 3443.260742,235.092407 
	C3449.647705,213.083115 3459.158936,192.772049 3474.628906,174.712006 
M3522.607666,327.848511 
	C3524.428467,335.955109 3525.832520,344.183746 3528.164307,352.140564 
	C3531.953369,365.070801 3537.796875,377.189026 3548.083496,386.166870 
	C3574.490967,409.214233 3620.249268,406.051331 3641.559326,379.053680 
	C3647.234375,371.863922 3652.079590,363.486725 3655.175537,354.887726 
	C3667.336182,321.111206 3666.371094,287.010925 3654.856689,253.245819 
	C3643.511963,219.978409 3617.591553,203.007217 3582.632568,206.209106 
	C3564.972168,207.826614 3549.665527,215.141022 3540.250244,230.892456 
	C3534.837646,239.947754 3530.150391,249.701324 3526.863525,259.707855 
	C3519.769287,281.303986 3521.473389,303.765167 3522.607666,327.848511 
z"/>
<path fill="#28316A" opacity="1.000000" stroke="none" 
	d="
M2329.923340,462.209015 
	C2306.915039,454.015198 2286.898438,442.058685 2269.850586,425.863434 
	C2252.554932,409.432800 2242.054688,388.629852 2236.087891,365.624756 
	C2232.237793,350.780273 2230.708984,335.629883 2229.392578,320.315094 
	C2227.168457,294.444580 2229.318848,269.047699 2235.814697,244.237213 
	C2251.350586,184.899521 2289.538330,147.995605 2349.567383,135.264954 
	C2384.349609,127.888504 2419.102539,130.206573 2452.944092,141.984894 
	C2491.968994,155.567322 2517.361328,183.325684 2533.724609,220.206375 
	C2541.487549,237.702820 2545.651367,256.165283 2546.298584,275.360748 
	C2546.768799,289.309937 2547.479736,303.254974 2547.682373,317.207672 
	C2547.786865,324.421692 2546.784668,325.087891 2539.604736,325.471283 
	C2536.946045,325.613251 2534.274414,325.517639 2531.608643,325.517700 
	C2463.631104,325.519135 2395.653564,325.518829 2327.676025,325.518829 
	C2323.761963,325.518829 2319.847900,325.518829 2315.024170,325.518829 
	C2314.492920,337.095123 2316.465088,347.023254 2320.324951,356.491913 
	C2331.987061,385.102722 2354.135254,399.243622 2384.310059,401.403748 
	C2396.951660,402.308685 2409.575928,401.570007 2421.891846,397.794861 
	C2432.075439,394.673370 2440.671875,389.339081 2447.331299,381.017212 
	C2449.701172,378.055634 2452.107666,375.918243 2456.398438,375.948486 
	C2483.387939,376.138763 2510.378906,376.071777 2537.369385,376.137177 
	C2538.315918,376.139465 2539.261719,376.639435 2541.395508,377.243896 
	C2539.712402,381.951355 2538.544922,386.733490 2536.386719,391.016571 
	C2516.998535,429.498535 2486.154297,454.442902 2444.809814,465.600830 
	C2406.651855,475.898865 2368.396240,475.085114 2329.923340,462.209015 
M2333.990234,225.112625 
	C2324.388184,237.448837 2318.885498,251.339676 2317.213135,267.201202 
	C2319.328125,267.549316 2320.609131,267.943573 2321.890869,267.944580 
	C2365.862305,267.978394 2409.833496,267.980896 2453.804932,267.947784 
	C2455.099854,267.946838 2456.399414,267.539429 2457.684570,267.263733 
	C2457.984375,267.199432 2458.274658,266.936279 2458.493652,266.695831 
	C2458.705078,266.463593 2458.818848,266.142487 2459.336426,265.210052 
	C2456.866455,243.647919 2448.923096,224.777771 2429.022461,212.474411 
	C2414.240234,203.335556 2398.145996,200.815109 2381.135742,201.937378 
	C2362.752686,203.150192 2346.691650,209.064941 2333.990234,225.112625 
z"/>
<path fill="#4FB3E7" opacity="1.000000" stroke="none" 
	d="
M2917.654785,937.626343 
	C2891.231689,941.186646 2865.740967,940.836914 2840.379639,935.949402 
	C2812.929688,930.659363 2788.093750,919.466492 2768.581299,899.332520 
	C2747.676514,877.761780 2733.503174,851.902283 2726.121826,822.545288 
	C2716.337158,783.629150 2716.443848,744.676636 2728.750488,706.561401 
	C2740.560547,669.984802 2760.272461,638.426636 2794.616699,618.283386 
	C2816.275391,605.580444 2839.931885,599.850464 2864.812012,597.921265 
	C2888.895752,596.053833 2912.630371,597.440308 2936.087646,603.248352 
	C2972.071289,612.157837 2999.487061,632.613770 3019.084473,664.044556 
	C3041.305176,699.683594 3049.841797,738.484497 3047.832031,780.142761 
	C3046.398193,809.861511 3039.223877,837.812866 3025.034912,863.997437 
	C3001.964600,906.571960 2966.177246,930.588684 2917.654785,937.626343 
M2958.316895,749.034607 
	C2956.904541,741.203979 2956.037354,733.227356 2953.985596,725.567932 
	C2945.013916,692.075684 2923.498535,672.372253 2892.036865,669.427490 
	C2858.907959,666.326721 2831.490479,679.359497 2817.643799,712.451721 
	C2813.351318,722.710266 2810.774658,733.979736 2809.239990,745.039856 
	C2805.781738,769.963318 2806.483643,794.917542 2815.058350,818.881531 
	C2827.723633,854.277710 2850.795166,868.593872 2883.094971,868.691467 
	C2914.416260,868.786011 2937.913574,856.352539 2951.081299,820.399353 
	C2959.286133,797.997009 2961.322266,774.593262 2958.316895,749.034607 
z"/>
<path fill="#4FB3E7" opacity="1.000000" stroke="none" 
	d="
M2266.944336,710.043701 
	C2267.448730,706.011841 2267.831787,702.672974 2267.613770,699.373718 
	C2266.878418,688.232483 2262.133301,679.701172 2251.221436,675.512085 
	C2229.302490,667.097168 2207.115723,666.356262 2184.966064,674.171265 
	C2174.652344,677.810242 2168.218750,685.959900 2164.306885,695.949341 
	C2162.265869,701.161377 2160.873535,706.627441 2159.018555,712.517029 
	C2132.270508,712.517029 2105.430176,712.517029 2077.090088,712.517029 
	C2078.287109,704.130676 2078.942383,696.253967 2080.582764,688.588013 
	C2090.041748,644.384094 2117.436768,616.860413 2160.945801,606.850403 
	C2207.207520,596.207031 2253.069824,598.163330 2298.093994,615.332520 
	C2334.864502,629.354431 2351.584473,656.458435 2352.177246,694.277893 
	C2352.856445,737.589294 2352.593994,780.921753 2352.218018,824.240479 
	C2352.045898,844.073364 2347.752930,863.184509 2337.450684,880.458374 
	C2323.554688,903.757568 2302.802979,918.590515 2277.708984,927.814392 
	C2252.114502,937.222229 2225.486328,940.664734 2198.392334,941.046509 
	C2180.095703,941.304321 2161.776367,941.540222 2143.680176,938.007935 
	C2123.677246,934.103333 2105.843018,926.220032 2091.196289,911.420593 
	C2078.999756,899.096680 2071.572266,884.254517 2069.087402,867.673157 
	C2066.079346,847.601746 2065.705566,827.177856 2072.411865,807.462830 
	C2082.367676,778.195435 2103.324219,760.183228 2131.835205,750.045532 
	C2154.560303,741.965149 2178.249268,738.816895 2202.033691,735.902283 
	C2215.544678,734.246521 2229.089844,732.266479 2242.328857,729.184265 
	C2252.737061,726.761108 2262.773193,722.520264 2266.944336,710.043701 
M2254.353027,781.692749 
	C2239.501709,785.127869 2224.700439,788.800903 2209.784180,791.926514 
	C2196.762695,794.655090 2183.580322,796.852295 2171.839600,803.493042 
	C2153.680664,813.763977 2150.266113,829.657837 2152.819092,847.960083 
	C2155.179443,864.882629 2167.383301,875.530701 2185.323242,878.026428 
	C2205.004639,880.764343 2222.778320,875.335876 2239.520264,865.387817 
	C2251.529785,858.251709 2259.432617,847.827881 2263.403320,834.630005 
	C2269.114990,815.644897 2267.887695,796.163696 2267.333984,775.779236 
	C2262.878418,777.842346 2259.346924,779.477539 2254.353027,781.692749 
z"/>
<path fill="#28316A" opacity="1.000000" stroke="none" 
	d="
M3158.973145,451.082733 
	C3134.269287,433.282928 3124.356689,408.961884 3123.761963,380.035583 
	C3123.473389,365.992615 3124.111084,352.125916 3128.542725,338.584991 
	C3137.291748,311.852478 3155.050293,293.645599 3180.668457,282.809418 
	C3200.779297,274.302795 3222.036377,270.427124 3243.556641,267.663910 
	C3258.398926,265.758240 3273.316406,264.205200 3288.009521,261.469543 
	C3296.052490,259.971954 3304.404785,257.547028 3311.387451,253.445724 
	C3329.694824,242.693085 3328.604736,215.827484 3309.503174,206.274323 
	C3302.550049,202.796967 3294.387695,201.085083 3286.585938,200.129791 
	C3277.716553,199.043762 3268.614014,199.287384 3259.645996,199.691071 
	C3237.702637,200.678879 3224.258545,211.228317 3218.392822,232.347473 
	C3215.542236,242.610580 3216.282715,243.561768 3203.428711,243.529541 
	C3184.104492,243.481094 3164.780273,243.550125 3145.456055,243.487045 
	C3141.910400,243.475464 3138.365723,243.073059 3134.038330,242.802078 
	C3134.192871,227.689117 3137.016846,214.098358 3141.862061,201.009155 
	C3154.260498,167.514236 3178.652344,146.757690 3212.710938,137.971634 
	C3262.459229,125.138161 3311.493652,127.506264 3359.362061,147.364746 
	C3390.924072,160.458267 3406.788086,185.139908 3407.802246,217.900391 
	C3409.275879,265.498291 3409.378906,313.216339 3407.799072,360.807892 
	C3406.385498,403.389313 3384.764404,434.173553 3345.882080,452.441193 
	C3321.996338,463.663177 3296.732666,468.784393 3270.546143,470.030334 
	C3259.261230,470.567322 3247.915283,471.972778 3236.699707,471.293732 
	C3221.825928,470.393188 3206.966797,468.341156 3192.262695,465.836090 
	C3180.342285,463.805267 3169.467285,458.554779 3158.973145,451.082733 
M3266.865479,321.825897 
	C3252.094727,324.394043 3237.283203,326.990906 3224.536865,335.604126 
	C3210.341064,345.196747 3204.840332,363.890076 3210.260498,382.922119 
	C3214.409912,397.492554 3227.936035,407.068634 3244.921631,408.099579 
	C3259.536865,408.986664 3273.215088,406.223511 3286.598877,400.283936 
	C3307.274170,391.108490 3319.356201,375.526184 3321.971924,353.305695 
	C3323.518799,340.165619 3323.304688,326.813782 3323.746582,313.552643 
	C3323.818359,311.405487 3323.180176,309.234680 3322.861572,307.015717 
	C3312.417236,310.368103 3302.792969,313.828522 3292.954102,316.498962 
	C3284.952393,318.670746 3276.693359,319.895721 3266.865479,321.825897 
z"/>
<path fill="#28316A" opacity="1.000000" stroke="none" 
	d="
M2910.214111,390.043671 
	C2928.020508,401.057648 2946.607910,402.053253 2965.817139,398.233673 
	C2982.624023,394.891815 2993.690918,384.507935 2999.821289,368.929382 
	C3002.845215,361.245453 3004.703857,353.102875 3007.066162,345.246918 
	C3015.149414,342.934326 3087.691162,342.808075 3097.842285,345.412750 
	C3096.136719,353.632782 3095.170410,362.194794 3092.563477,370.224152 
	C3074.437988,426.055817 3031.034912,463.521027 2970.042969,470.082275 
	C2941.587646,473.143402 2913.551514,471.717621 2885.927490,464.092438 
	C2847.940430,453.606659 2821.160645,429.902374 2804.080322,394.670288 
	C2792.864502,371.534698 2787.261719,347.059418 2786.053223,321.509613 
	C2784.547363,289.669006 2786.513184,258.120728 2797.839844,228.007721 
	C2818.294678,173.626038 2857.508789,142.011139 2915.146240,133.742599 
	C2947.197998,129.144562 2978.927734,131.066849 3010.113525,139.928375 
	C3025.587646,144.325363 3040.208252,150.729446 3053.232422,160.369019 
	C3071.272705,173.721039 3082.963623,191.678497 3089.739502,212.742462 
	C3093.191406,223.473053 3095.205078,234.677078 3097.625244,245.720490 
	C3098.172119,248.215988 3097.705811,250.933472 3097.705811,254.503311 
	C3094.534180,254.871399 3091.695801,255.477783 3088.855469,255.486877 
	C3064.856934,255.563721 3040.857910,255.575836 3016.859375,255.509109 
	C3007.841064,255.484024 3007.975098,255.324570 3005.343750,246.813751 
	C3003.773926,241.734924 3002.214355,236.544998 2999.772217,231.862762 
	C2990.941895,214.931168 2977.049805,205.040573 2957.743896,204.030792 
	C2949.480957,203.598602 2940.955811,203.417862 2932.887207,204.926514 
	C2909.731689,209.255997 2895.546143,224.487213 2887.755371,245.815674 
	C2884.353516,255.128815 2881.580811,265.008850 2880.678223,274.829559 
	C2878.611328,297.317413 2877.731689,319.970734 2882.362305,342.315704 
	C2886.230713,360.983063 2893.453125,377.935516 2910.214111,390.043671 
z"/>
<path fill="#28316A" opacity="1.000000" stroke="none" 
	d="
M2724.373047,219.828796 
	C2696.403564,225.686386 2680.259277,242.439560 2675.221436,269.429352 
	C2673.157959,280.483093 2672.012939,291.863556 2671.934570,303.105682 
	C2671.590820,352.414642 2671.802246,401.727417 2671.768799,451.038757 
	C2671.766357,454.934814 2671.432861,458.830658 2671.224609,463.348206 
	C2642.866455,463.348206 2615.395264,463.348206 2586.951904,463.348206 
	C2586.690918,459.820557 2586.249268,456.613892 2586.247070,453.406891 
	C2586.205078,396.765472 2585.297119,340.103973 2586.531250,283.489441 
	C2587.391113,244.054886 2600.749023,208.333405 2628.123779,179.117752 
	C2648.015869,157.887878 2673.125732,145.058945 2701.226562,138.207733 
	C2720.692627,133.461700 2740.531982,131.288437 2760.591797,131.563492 
	C2764.503174,131.617111 2768.407715,132.168945 2773.721436,132.606842 
	C2773.837158,161.019943 2773.799316,188.789215 2773.727295,216.738663 
	C2756.784668,217.768005 2740.998291,218.727097 2724.373047,219.828796 
z"/>
<path fill="#50B4E9" opacity="1.000000" stroke="none" 
	d="
M640.779785,809.261719 
	C677.761963,839.129272 720.669617,838.729675 756.211548,808.673157 
	C757.219299,807.820923 758.291809,807.045471 759.760132,805.902649 
	C762.960510,807.372498 766.246460,808.860474 769.514709,810.386169 
	C788.049561,819.039001 807.084534,826.240906 827.833008,826.385071 
	C837.413452,826.451660 847.174683,825.585999 856.555847,823.677490 
	C872.722046,820.388672 886.436523,812.514160 895.662598,797.741638 
	C916.813599,802.519531 936.982605,801.693848 955.868774,790.549622 
	C973.980469,779.862366 988.086487,765.882996 994.110718,744.360474 
	C997.460449,744.360474 1000.682556,744.204590 1003.885681,744.384888 
	C1030.498657,745.883423 1052.761963,736.125244 1071.652954,717.983337 
	C1083.918457,706.204224 1090.684204,691.671143 1092.078491,674.675537 
	C1092.236816,672.746887 1092.596313,670.834900 1092.974243,668.109680 
	C1102.249390,668.109680 1111.339233,669.305237 1119.999146,667.882996 
	C1144.864990,663.799194 1165.231812,651.991638 1177.465698,629.122559 
	C1186.779907,611.711365 1187.046265,593.383362 1180.476562,574.904602 
	C1179.149780,571.172729 1177.493530,567.557983 1175.432983,562.532654 
	C1271.878540,522.708923 1371.037598,493.069092 1473.421753,469.338684 
	C1473.770630,474.085480 1474.141113,477.605896 1474.272339,481.135193 
	C1476.933838,552.763489 1455.104370,617.047485 1415.266235,675.718750 
	C1377.633423,731.142090 1328.787720,775.067444 1273.289062,811.899719 
	C1202.978516,858.561951 1126.295654,891.120544 1045.340332,914.082153 
	C990.752502,929.565125 935.219482,940.110291 878.826355,946.398743 
	C833.059998,951.502075 787.164062,954.192627 741.152649,953.460083 
	C612.785034,951.416565 487.964050,930.350525 368.432617,882.071045 
	C298.769409,853.933594 233.949127,817.493530 176.510132,768.645447 
	C133.714783,732.250793 97.406372,690.458008 70.796852,640.683655 
	C47.322739,596.774231 34.251221,549.975281 32.626457,500.172394 
	C32.227222,487.934845 33.294521,475.649414 33.711201,462.649750 
	C36.713161,462.889709 38.605907,462.803772 40.382317,463.217438 
	C100.049232,477.111816 159.871796,490.427368 218.026886,510.049957 
	C255.626770,522.736877 292.732269,536.616760 327.270813,556.490601 
	C333.002533,559.788635 338.428131,563.618652 344.449310,567.495239 
	C335.862427,594.289673 337.562164,619.395630 355.495148,641.520630 
	C373.129608,663.277344 396.652802,671.047058 424.418335,667.916138 
	C439.911804,715.424805 471.635895,738.882874 523.232666,735.282471 
	C530.883728,752.875732 544.896240,765.550842 563.048706,773.978210 
	C580.913330,782.271973 599.268494,784.751831 616.734741,778.929199 
	C625.118530,789.574097 632.684937,799.181091 640.779785,809.261719 
z"/>
<path fill="#FEFEFE" opacity="1.000000" stroke="none" 
	d="
M1077.009033,510.995972 
	C1098.405762,529.627747 1119.233276,547.832275 1140.163452,565.918274 
	C1147.163574,571.967224 1152.445679,579.131104 1154.857056,588.060852 
	C1158.800537,602.664978 1156.562988,616.019165 1144.841187,626.423035 
	C1130.767578,638.914185 1114.306641,643.737793 1095.714844,639.575806 
	C1088.131348,637.878113 1081.710327,633.967041 1075.838501,628.664612 
	C1042.694458,598.734070 1009.368286,569.004822 976.028442,539.291931 
	C972.315613,535.983032 968.288818,532.954773 964.104492,530.268555 
	C960.531372,527.974731 956.508118,527.474609 953.057617,530.792664 
	C949.168396,534.532776 950.173279,538.785095 952.693848,542.607056 
	C954.687317,545.629822 957.268921,548.313843 959.839966,550.899048 
	C988.984314,580.203430 1018.177795,609.458862 1047.354248,638.731323 
	C1049.236206,640.619629 1051.172852,642.463318 1052.937134,644.457764 
	C1069.055542,662.679504 1067.690186,685.008362 1049.082397,700.830872 
	C1035.947998,711.999329 1021.015076,718.632202 1003.195862,716.410339 
	C993.644470,715.219482 985.500854,711.483215 978.478271,704.640625 
	C956.280396,683.011536 933.857971,661.612122 911.423218,640.227905 
	C907.332764,636.329041 902.959656,632.661743 898.362549,629.384827 
	C895.746155,627.519836 892.511475,625.935669 889.379211,625.504700 
	C883.154602,624.648254 879.234009,629.836243 881.635864,635.711975 
	C882.982056,639.005127 885.261841,642.065308 887.651184,644.760315 
	C909.097900,668.949768 930.678467,693.020569 952.170288,717.170166 
	C954.596802,719.896667 957.080627,722.681946 958.914185,725.806091 
	C964.697205,735.659546 964.422974,745.262268 957.514709,754.723145 
	C943.753662,773.568848 916.812439,777.301147 899.846863,770.777222 
	C896.313599,769.418518 893.308411,766.349609 890.434387,763.667419 
	C869.973022,744.571655 849.656616,725.320496 829.163513,706.259094 
	C826.025757,703.340637 822.427795,700.746826 818.652527,698.734985 
	C815.313843,696.955750 811.541931,696.991943 808.498047,700.047607 
	C805.380005,703.177795 805.617981,706.715820 807.754211,710.084656 
	C809.698547,713.150635 811.939514,716.079651 814.375732,718.774353 
	C831.809753,738.057922 849.332703,757.260986 866.808411,776.506897 
	C868.362671,778.218506 869.781738,780.052856 871.533203,782.153564 
	C869.106689,788.725769 863.703613,791.734436 857.822327,794.102356 
	C845.088501,799.229309 831.812500,799.994751 818.503662,797.645874 
	C803.719727,795.036682 789.744568,789.871033 776.257080,782.043152 
	C788.206421,753.060791 787.065979,725.076965 769.910461,698.893250 
	C752.746277,672.696045 727.539978,660.432983 695.778687,659.584412 
	C695.866211,631.478455 690.973450,605.169739 666.348572,587.891785 
	C643.243103,571.679871 617.644165,567.394592 589.443359,575.903076 
	C577.759277,554.589417 559.272034,542.236755 535.549011,537.372253 
	C511.922791,532.527588 489.865295,536.090637 469.042114,550.166809 
	C454.798615,534.915833 437.906952,524.656738 416.417847,523.525513 
	C394.945251,522.395325 376.660553,529.767456 361.173889,543.958923 
	C305.362122,507.437134 243.613739,486.522827 180.914062,468.208069 
	C147.714722,458.510468 113.940582,450.786072 80.452469,442.068939 
	C66.980362,438.562073 53.579342,434.782135 38.935593,430.797119 
	C60.644703,334.708923 117.506157,263.576324 190.936920,203.887283 
	C214.662933,212.445755 237.370026,220.999481 260.321472,228.837784 
	C303.804199,243.687897 347.944305,256.219910 392.821838,266.243835 
	C438.666107,276.483704 483.904694,276.462982 528.776428,261.261322 
	C538.836121,257.853333 549.302002,255.629822 559.614441,252.992172 
	C562.457764,252.264923 565.422119,252.011093 569.501282,251.350510 
	C568.256775,253.368591 567.789062,254.499969 567.007874,255.339691 
	C543.852356,280.227814 520.653625,305.075745 497.503021,329.968506 
	C495.240326,332.401459 493.029297,334.935455 491.160370,337.672485 
	C482.664215,350.115417 483.019714,364.322205 493.442047,375.228058 
	C499.064819,381.111603 505.960297,386.731995 513.386108,389.781128 
	C554.670227,406.732941 595.639771,408.816711 634.586853,383.129486 
	C649.024963,373.606934 662.489868,362.621216 676.598938,352.584412 
	C696.393066,338.503387 716.117615,324.296875 736.377441,310.908936 
	C747.501038,303.558289 760.031616,298.702057 773.299866,296.256561 
	C792.083496,292.794586 809.976318,295.961945 826.381287,305.278870 
	C838.500610,312.161896 850.574341,319.556793 861.301270,328.384796 
	C906.070251,365.228271 950.445251,402.554413 994.718933,439.994293 
	C1022.200623,463.234070 1049.241333,486.995300 1077.009033,510.995972 
z"/>
<path fill="#FEFEFE" opacity="1.000000" stroke="none" 
	d="
M679.697388,313.697449 
	C660.285400,328.407928 641.624634,342.937531 622.564331,356.922668 
	C598.072205,374.893311 570.433044,377.564484 541.569275,371.782440 
	C531.151428,369.695526 520.975342,366.261749 513.835999,356.276001 
	C515.718750,353.479736 517.195312,350.457092 519.404846,348.130432 
	C548.310913,317.692047 576.778503,286.809662 606.461670,257.144928 
	C634.344971,229.278976 666.624573,207.618332 704.888062,196.270142 
	C754.206482,181.643265 803.953186,180.771927 853.927673,192.826660 
	C882.468140,199.711136 910.018066,209.348572 936.655029,221.805069 
	C997.615356,250.312546 1061.696289,265.151672 1129.152588,263.428467 
	C1189.107666,261.896881 1246.342651,247.544052 1301.616211,224.789856 
	C1310.206543,221.253571 1318.734009,217.564819 1328.021484,213.637451 
	C1361.269287,241.484100 1390.834961,272.839386 1415.324341,308.866333 
	C1441.826904,347.854584 1460.707642,390.108887 1469.775513,438.071503 
	C1416.119751,450.594269 1362.902344,464.723816 1310.493408,481.743195 
	C1257.936035,498.810791 1206.193359,518.005859 1154.796143,540.605103 
	C1152.191162,538.428772 1149.416016,536.166504 1146.701172,533.833862 
	C1071.136719,468.906769 995.714600,403.813049 919.924744,339.150238 
	C900.682190,322.732758 880.506165,307.374390 860.318115,292.112640 
	C847.022461,282.061462 832.673096,273.512482 816.570312,268.497894 
	C789.732483,260.140320 763.878357,264.177887 738.755310,275.262512 
	C717.230591,284.759491 698.727478,299.004364 679.697388,313.697449 
z"/>
<path fill="#50B3E9" opacity="1.000000" stroke="none" 
	d="
M415.131378,84.923477 
	C473.411530,65.092377 532.357483,51.321423 592.436707,42.500183 
	C651.545166,33.821476 711.015808,30.466806 770.760254,31.295496 
	C883.862915,32.864300 994.183777,50.532566 1101.085693,87.997246 
	C1168.390869,111.584869 1231.910156,142.730682 1290.199097,184.108353 
	C1293.453613,186.418594 1296.616943,188.859589 1299.766602,191.311966 
	C1300.239380,191.680176 1300.402222,192.446701 1301.297729,194.149033 
	C1285.925049,199.889740 1270.836304,205.966507 1255.457031,211.187347 
	C1202.855469,229.043991 1148.855835,237.662674 1093.250610,233.890564 
	C1044.567383,230.588013 997.968384,218.482712 953.757385,197.940002 
	C917.938354,181.296600 881.125732,167.882843 842.164795,161.121460 
	C773.412537,149.190002 707.388184,156.530945 645.786011,191.179245 
	C634.224976,197.681732 623.822998,206.220398 612.667664,213.483856 
	C609.487366,215.554626 605.598022,217.492188 601.930969,217.703186 
	C579.520935,218.992493 557.745239,223.531845 536.144897,229.303741 
	C519.746399,233.685638 503.409424,238.438263 486.809418,241.893921 
	C459.958649,247.483505 433.075897,245.388733 406.506989,239.509369 
	C345.967499,226.112732 286.607056,208.597717 228.243301,187.689178 
	C225.238464,186.612701 222.330780,185.264999 218.019363,183.481644 
	C279.538544,140.285980 345.019531,108.877800 415.131378,84.923477 
z"/>
<path fill="#FDFEFE" opacity="1.000000" stroke="none" 
	d="
M525.621643,704.113281 
	C499.367767,718.668091 457.731384,697.566162 452.125397,661.875549 
	C450.903778,654.098206 451.272552,646.014343 451.497498,638.088379 
	C451.626251,633.551270 452.079498,629.389771 447.061310,627.169861 
	C420.371124,645.336792 401.017151,646.498230 382.639496,631.043091 
	C367.057648,617.939148 362.010864,596.068909 370.297760,577.560120 
	C378.400421,559.462830 398.479279,547.965759 417.326630,550.631714 
	C441.235992,554.013611 454.430939,569.612732 458.730469,599.928894 
	C462.607727,599.103088 463.304810,595.438354 465.112671,592.970825 
	C480.665039,571.743469 500.865112,560.581543 527.774719,563.848267 
	C551.789429,566.763550 566.291626,580.581421 570.432434,604.438904 
	C570.660217,605.751282 570.848511,607.073730 571.147888,608.370056 
	C573.029175,616.515564 576.502930,617.897095 582.686646,611.982605 
	C601.276794,594.201843 626.069824,595.671997 646.501465,607.143982 
	C659.310120,614.335815 666.201782,625.776978 668.007996,640.159546 
	C669.560364,652.520142 668.534912,664.751953 664.593506,676.655029 
	C664.174927,677.919128 663.801025,679.198486 663.360291,680.454651 
	C661.924622,684.546265 659.881409,688.966064 663.533447,692.595032 
	C667.027832,696.067261 671.149963,693.407104 674.746094,692.068420 
	C688.568115,686.923157 702.439819,685.302307 716.721558,690.180664 
	C743.760803,699.416748 760.012878,725.782715 756.199036,754.455078 
	C752.682800,780.890259 729.198242,802.709534 702.717346,804.144531 
	C672.782410,805.766724 648.005310,787.893188 641.170044,759.566895 
	C640.241211,755.717773 640.164795,751.667725 639.612915,747.721985 
	C638.263855,738.075012 633.843323,736.058716 626.367004,742.124207 
	C619.321899,747.839783 612.295471,753.093933 602.989685,754.749512 
	C574.753418,759.772888 545.002869,735.064880 545.617126,706.869812 
	C545.653320,705.208618 545.899597,703.499146 545.604431,701.893738 
	C544.806580,697.553711 541.652161,695.637695 537.624268,697.450928 
	C533.703247,699.216003 530.092285,701.669800 525.621643,704.113281 
z"/>
<path fill="#000101" opacity="1.000000" stroke="none" 
	d="
M2578.447754,850.551880 
	C2557.677734,868.440125 2534.174561,869.150574 2510.112549,862.878967 
	C2488.525146,857.252258 2477.612793,840.449646 2472.371582,820.187805 
	C2463.006104,783.984497 2464.042969,747.994995 2476.446777,712.396301 
	C2487.521484,680.613342 2510.855225,669.704956 2542.551270,671.479614 
	C2565.130859,672.743896 2579.659912,685.975098 2589.946533,704.944275 
	C2599.002930,721.644714 2603.171631,739.723450 2604.200684,758.483215 
	C2605.261230,777.817261 2603.430908,796.940918 2598.283203,815.715454 
	C2594.689697,828.822083 2588.525146,840.359863 2578.447754,850.551880 
z"/>
<path fill="#000001" opacity="1.000000" stroke="none" 
	d="
M3980.987793,385.122070 
	C3954.791016,406.551178 3910.926758,404.409302 3887.845703,383.668762 
	C3876.098877,373.112915 3869.098633,359.575256 3864.861328,344.655426 
	C3858.398926,321.900055 3858.467773,298.643402 3861.097412,275.379669 
	C3863.064697,257.979004 3868.038086,241.552994 3878.805176,227.277405 
	C3890.498291,211.773621 3905.929688,203.483383 3925.237305,201.384766 
	C3935.978760,200.217194 3946.482666,200.685043 3956.785645,203.292068 
	C3981.441895,209.530914 3995.200439,227.234070 4003.546631,249.840652 
	C4007.933350,261.722534 4009.671143,274.201569 4010.391846,286.950287 
	C4011.313965,303.262512 4011.043213,319.445068 4007.725586,335.396027 
	C4003.802734,354.256226 3996.737061,371.683807 3980.987793,385.122070 
z"/>
<path fill="#010101" opacity="1.000000" stroke="none" 
	d="
M1888.018799,672.023926 
	C1895.116577,672.972107 1901.500122,673.343567 1907.545166,674.971741 
	C1930.064819,681.036865 1944.029907,696.718628 1951.078979,717.936401 
	C1962.699707,752.914673 1963.549927,788.355469 1950.119751,823.175293 
	C1943.468140,840.420288 1932.363892,854.658386 1914.511597,861.480530 
	C1885.802734,872.451538 1847.906128,866.712708 1828.740356,826.247437 
	C1822.750244,813.600525 1820.392456,799.846863 1819.523315,785.734375 
	C1818.230591,764.744141 1818.881958,743.949463 1824.367310,723.634277 
	C1831.392944,697.614746 1846.883179,679.510254 1874.321411,673.716980 
	C1878.528931,672.828613 1882.869873,672.572510 1888.018799,672.023926 
z"/>
<path fill="#000001" opacity="1.000000" stroke="none" 
	d="
M3522.477539,326.950439 
	C3521.473389,303.765167 3519.769287,281.303986 3526.863525,259.707855 
	C3530.150391,249.701324 3534.837646,239.947754 3540.250244,230.892456 
	C3549.665527,215.141022 3564.972168,207.826614 3582.632568,206.209106 
	C3617.591553,203.007217 3643.511963,219.978409 3654.856689,253.245819 
	C3666.371094,287.010925 3667.336182,321.111206 3655.175537,354.887726 
	C3652.079590,363.486725 3647.234375,371.863922 3641.559326,379.053680 
	C3620.249268,406.051331 3574.490967,409.214233 3548.083496,386.166870 
	C3537.796875,377.189026 3531.953369,365.070801 3528.164307,352.140564 
	C3525.832520,344.183746 3524.428467,335.955109 3522.477539,326.950439 
z"/>
<path fill="#000000" opacity="1.000000" stroke="none" 
	d="
M2334.442139,224.556503 
	C2346.691650,209.064941 2362.752686,203.150192 2381.135742,201.937378 
	C2398.145996,200.815109 2414.240234,203.335556 2429.022461,212.474411 
	C2448.923096,224.777771 2456.866455,243.647919 2459.336426,265.210052 
	C2458.818848,266.142487 2458.705078,266.463593 2458.493652,266.695831 
	C2458.274658,266.936279 2457.984375,267.199432 2457.684570,267.263733 
	C2456.399414,267.539429 2455.099854,267.946838 2453.804932,267.947784 
	C2409.833496,267.980896 2365.862305,267.978394 2321.890869,267.944580 
	C2320.609131,267.943573 2319.328125,267.549316 2317.213135,267.201202 
	C2318.885498,251.339676 2324.388184,237.448837 2334.442139,224.556503 
z"/>
<path fill="#000101" opacity="1.000000" stroke="none" 
	d="
M2958.322510,749.938843 
	C2961.322266,774.593262 2959.286133,797.997009 2951.081299,820.399353 
	C2937.913574,856.352539 2914.416260,868.786011 2883.094971,868.691467 
	C2850.795166,868.593872 2827.723633,854.277710 2815.058350,818.881531 
	C2806.483643,794.917542 2805.781738,769.963318 2809.239990,745.039856 
	C2810.774658,733.979736 2813.351318,722.710266 2817.643799,712.451721 
	C2831.490479,679.359497 2858.907959,666.326721 2892.036865,669.427490 
	C2923.498535,672.372253 2945.013916,692.075684 2953.985596,725.567932 
	C2956.037354,733.227356 2956.904541,741.203979 2958.322510,749.938843 
z"/>
<path fill="#010203" opacity="1.000000" stroke="none" 
	d="
M2255.084229,781.402771 
	C2259.346924,779.477539 2262.878418,777.842346 2267.333984,775.779236 
	C2267.887695,796.163696 2269.114990,815.644897 2263.403320,834.630005 
	C2259.432617,847.827881 2251.529785,858.251709 2239.520264,865.387817 
	C2222.778320,875.335876 2205.004639,880.764343 2185.323242,878.026428 
	C2167.383301,875.530701 2155.179443,864.882629 2152.819092,847.960083 
	C2150.266113,829.657837 2153.680664,813.763977 2171.839600,803.493042 
	C2183.580322,796.852295 2196.762695,794.655090 2209.784180,791.926514 
	C2224.700439,788.800903 2239.501709,785.127869 2255.084229,781.402771 
z"/>
<path fill="#000101" opacity="1.000000" stroke="none" 
	d="
M3267.707031,321.683258 
	C3276.693359,319.895721 3284.952393,318.670746 3292.954102,316.498962 
	C3302.792969,313.828522 3312.417236,310.368103 3322.861572,307.015717 
	C3323.180176,309.234680 3323.818359,311.405487 3323.746582,313.552643 
	C3323.304688,326.813782 3323.518799,340.165619 3321.971924,353.305695 
	C3319.356201,375.526184 3307.274170,391.108490 3286.598877,400.283936 
	C3273.215088,406.223511 3259.536865,408.986664 3244.921631,408.099579 
	C3227.936035,407.068634 3214.409912,397.492554 3210.260498,382.922119 
	C3204.840332,363.890076 3210.341064,345.196747 3224.536865,335.604126 
	C3237.283203,326.990906 3252.094727,324.394043 3267.707031,321.683258 
z"/>
</svg>