<?xml version="1.0" standalone="no"?>
<!DOCTYPE svg PUBLIC "-//W3C//DTD SVG 20010904//EN"
 "http://www.w3.org/TR/2001/REC-SVG-20010904/DTD/svg10.dtd">
<svg version="1.0" xmlns="http://www.w3.org/2000/svg"
 width="4096.000000pt" height="1067.000000pt" viewBox="0 0 4096.000000 1067.000000"
 preserveAspectRatio="xMidYMid meet">

<g transform="translate(0.000000,1067.000000) scale(0.100000,-0.100000)"
fill="#000000" stroke="none">
<path d="M7140 10663 c-1544 -48 -3027 -409 -4245 -1032 -1174 -601 -2035
-1394 -2501 -2306 -210 -409 -328 -796 -376 -1230 -20 -183 -17 -846 5 -1042
70 -619 261 -1185 579 -1713 207 -345 415 -608 727 -921 304 -303 521 -482
876 -722 782 -527 1723 -912 2810 -1151 1387 -304 3074 -336 4535 -86 1592
274 2935 872 3904 1740 854 765 1377 1717 1510 2750 41 314 47 929 11 1199
-56 433 -165 780 -373 1184 -283 553 -724 1074 -1297 1533 -897 720 -2113
1267 -3465 1558 -852 184 -1798 268 -2700 239z m795 -293 c1751 -71 3359 -526
4609 -1307 145 -90 436 -293 436 -303 0 -4 -66 -33 -147 -65 -666 -262 -1300
-380 -1863 -346 -548 34 -1011 152 -1530 391 -434 200 -870 327 -1285 375
-168 19 -476 19 -661 0 -523 -55 -981 -233 -1368 -533 -84 -65 -85 -66 -241
-77 -129 -9 -306 -43 -510 -96 -104 -27 -266 -69 -360 -93 -250 -66 -364 -80
-567 -72 -111 4 -215 15 -305 31 -293 54 -935 224 -1398 370 -187 60 -554 188
-582 204 -33 18 454 322 812 507 1395 721 3178 1085 4960 1014z m235 -1544
c222 -30 460 -86 695 -164 144 -48 239 -87 590 -240 739 -322 1503 -429 2285
-321 464 65 933 206 1476 444 30 14 31 14 140 -83 577 -510 993 -1111 1203
-1742 43 -126 92 -323 94 -373 2 -40 1 -41 -38 -50 -997 -225 -2064 -567
-2944 -944 -128 -55 -157 -64 -172 -54 -11 6 -243 206 -516 444 -1174 1021
-1979 1702 -2278 1927 -397 298 -631 394 -914 377 -324 -20 -577 -142 -1031
-496 -387 -302 -458 -356 -551 -417 -227 -150 -363 -189 -624 -181 -122 4
-177 10 -233 26 -93 27 -168 64 -209 104 -35 33 -39 50 -20 83 22 39 714 777
834 890 389 365 645 533 993 652 366 125 832 170 1220 118z m-6085 -248 c544
-209 1243 -422 1765 -537 268 -59 467 -82 708 -82 176 0 323 23 575 92 163 44
445 116 520 133 23 6 -7 -31 -156 -191 -676 -727 -668 -716 -675 -838 -8 -124
74 -248 221 -334 174 -102 512 -167 750 -143 291 29 454 114 927 482 275 214
379 287 552 391 220 133 351 178 538 186 107 5 138 2 210 -16 167 -41 375
-162 632 -367 306 -244 1030 -858 1913 -1623 757 -656 863 -751 894 -799 47
-74 71 -154 71 -238 0 -109 -27 -173 -109 -255 -160 -160 -394 -203 -594 -109
-24 11 -150 117 -292 247 -346 313 -701 630 -809 720 -138 116 -197 133 -240
71 -20 -28 -20 -51 0 -91 9 -18 249 -266 534 -552 477 -480 520 -525 551 -590
30 -62 34 -78 33 -151 0 -74 -4 -90 -37 -157 -98 -199 -375 -338 -591 -298
-123 23 -147 40 -449 334 -465 452 -589 561 -655 573 -68 13 -113 -36 -92
-100 6 -19 165 -205 385 -452 411 -459 430 -486 430 -589 -1 -75 -28 -129 -99
-201 -90 -90 -210 -136 -355 -137 -163 -1 -174 4 -356 182 -347 338 -565 532
-632 563 -38 17 -46 17 -77 4 -19 -8 -37 -24 -41 -36 -19 -59 -5 -78 325 -441
176 -194 320 -359 320 -367 0 -27 -77 -89 -137 -112 -215 -81 -444 -57 -730
75 l-92 43 25 62 c43 106 56 191 51 335 -5 155 -21 217 -86 350 -88 178 -219
307 -399 392 -101 49 -239 83 -334 83 l-58 0 0 63 c0 300 -110 539 -309 671
-197 132 -462 181 -676 126 -51 -13 -81 -17 -83 -10 -2 6 -22 37 -44 70 -90
136 -253 245 -445 297 -83 23 -118 27 -228 27 -90 0 -151 -5 -199 -17 -65 -16
-201 -76 -256 -112 -25 -17 -26 -16 -91 47 -223 213 -536 265 -814 133 -68
-32 -91 -47 -169 -109 l-36 -28 -33 25 c-101 77 -408 240 -642 342 -508 220
-1179 431 -1960 615 -116 28 -292 73 -392 101 -167 47 -183 53 -183 74 0 60
107 398 182 575 238 561 669 1120 1216 1578 l122 102 38 -16 c20 -9 96 -38
167 -66z m-1490 -2574 c733 -171 1170 -289 1560 -419 497 -167 909 -348 1164
-511 76 -49 91 -62 86 -79 -37 -127 -45 -177 -45 -265 0 -329 205 -600 530
-701 62 -20 97 -24 201 -24 l125 0 28 -86 c82 -261 304 -473 586 -560 59 -18
99 -23 185 -24 61 0 124 3 142 7 31 7 32 6 74 -69 85 -156 258 -291 461 -361
133 -45 273 -54 386 -25 l72 19 41 -74 c109 -203 288 -350 514 -422 54 -17
103 -24 211 -27 149 -6 221 6 356 57 65 24 187 101 247 156 l41 37 113 -53
c124 -58 304 -120 412 -141 114 -23 332 -18 440 10 164 42 295 121 375 229
l25 33 89 -15 c110 -20 173 -20 268 -2 187 36 374 152 502 310 54 68 103 162
112 217 l6 36 57 -10 c77 -12 221 -2 309 23 241 67 452 231 547 423 44 89 75
205 75 281 l0 33 119 -5 c137 -5 228 11 350 62 313 132 489 411 451 713 -12
91 -21 124 -63 216 -16 37 -28 69 -26 71 10 8 450 180 619 241 423 154 1010
340 1470 466 248 68 778 202 852 214 l36 7 8 -58 c10 -84 -2 -408 -21 -548
-100 -750 -466 -1449 -1088 -2080 -807 -817 -2007 -1456 -3417 -1820 -607
-156 -1235 -254 -1975 -308 -233 -17 -1175 -17 -1405 0 -714 53 -1304 142
-1891 288 -1811 447 -3273 1349 -4036 2489 -318 474 -502 964 -565 1500 -13
119 -17 515 -4 578 6 34 10 38 29 33 12 -3 130 -31 262 -62z m3600 -829 c192
-50 317 -199 347 -413 l13 -93 50 77 c96 147 270 272 423 303 129 27 306 2
415 -56 120 -66 203 -192 230 -352 21 -119 43 -128 138 -52 153 124 312 149
508 81 181 -62 284 -172 321 -342 19 -83 8 -284 -20 -373 -44 -143 -47 -163
-22 -187 24 -25 7 -27 191 27 83 24 104 27 190 22 156 -8 278 -64 386 -175
112 -115 167 -247 168 -402 1 -163 -57 -304 -174 -421 -108 -109 -251 -169
-406 -169 -100 0 -169 14 -249 50 -197 89 -320 264 -343 487 -5 46 -14 90 -21
98 -25 30 -71 18 -141 -38 -90 -73 -149 -99 -235 -105 -92 -6 -157 9 -271 64
-114 54 -200 133 -241 221 -23 49 -27 74 -30 163 -2 58 -8 111 -14 118 -19 22
-69 13 -127 -23 -168 -104 -308 -109 -489 -19 -137 70 -245 194 -294 344 -18
55 -22 89 -22 221 -1 138 -3 159 -19 177 -19 21 -19 21 -75 -25 -240 -195
-572 -122 -709 155 -37 75 -38 78 -38 191 0 113 1 118 37 194 96 200 315 306
523 252z"/>
<path d="M37166 10379 c-242 -31 -431 -140 -513 -296 -68 -127 -66 -117 -73
-677 l-5 -508 -35 48 c-19 27 -61 78 -95 113 -210 222 -471 321 -809 308 -367
-14 -639 -133 -878 -385 -225 -237 -359 -546 -424 -977 -25 -162 -30 -534 -10
-692 46 -359 157 -631 357 -878 163 -201 461 -349 839 -416 147 -27 452 -36
611 -20 444 46 787 216 1003 495 140 182 212 338 268 585 l22 96 3 1608 3
1607 -97 -1 c-54 -1 -129 -6 -167 -10z m-1141 -1754 c215 -45 400 -212 487
-438 62 -159 89 -328 89 -547 1 -178 -12 -286 -47 -408 -84 -293 -255 -481
-490 -538 -95 -24 -287 -23 -374 0 -271 74 -433 293 -495 671 -37 220 -29 500
20 692 46 180 138 350 238 438 136 120 367 173 572 130z"/>
<path d="M39165 9394 c-640 -54 -1025 -307 -1290 -849 -133 -271 -188 -525
-188 -860 0 -321 54 -581 174 -833 221 -468 545 -730 1023 -827 393 -80 839
-46 1172 89 584 237 954 949 896 1724 -29 389 -143 706 -358 998 -222 302
-530 477 -945 538 -107 16 -391 27 -484 20z m317 -718 c372 -71 577 -385 595
-912 10 -295 -25 -501 -118 -693 -44 -89 -63 -116 -137 -191 -97 -97 -180
-145 -307 -176 -102 -25 -305 -23 -406 4 -241 65 -407 236 -492 507 -73 234
-85 583 -28 844 76 346 286 571 579 621 78 13 235 11 314 -4z"/>
<path d="M18397 9359 c-277 -48 -508 -167 -697 -358 -184 -185 -295 -398 -363
-693 -21 -91 -21 -112 -24 -1176 l-4 -1082 383 2 383 3 5 1045 5 1045 23 65
c53 147 154 262 285 324 93 44 158 57 282 57 269 -1 437 -121 521 -371 18 -52
19 -117 24 -1110 l5 -1055 382 -3 382 -2 3 1027 c4 1138 0 1069 70 1213 45 93
150 196 248 243 96 45 160 58 285 58 235 -1 395 -94 485 -283 71 -149 70 -133
70 -1259 l0 -999 383 2 382 3 3 965 c3 1003 -1 1146 -38 1326 -96 467 -380
808 -793 953 -146 51 -264 72 -447 78 -124 4 -189 1 -262 -11 -260 -43 -489
-159 -673 -342 l-85 -84 -73 76 c-39 42 -97 96 -127 119 -146 112 -349 199
-540 230 -131 21 -347 18 -483 -6z"/>
<path d="M32395 9365 c-627 -77 -971 -375 -1065 -923 -11 -63 -20 -127 -20
-143 l0 -29 403 0 404 0 12 58 c18 77 70 188 114 238 42 48 130 97 213 119 87
23 243 30 363 16 198 -23 300 -73 355 -171 29 -51 31 -62 31 -156 0 -93 -2
-103 -28 -143 -47 -70 -153 -126 -301 -157 -39 -8 -193 -30 -342 -49 -294 -37
-371 -51 -539 -95 -447 -118 -701 -368 -770 -758 -21 -115 -21 -342 0 -449 55
-283 205 -483 460 -610 82 -41 163 -68 286 -95 96 -20 130 -22 434 -23 267 0
353 3 450 18 233 35 439 94 590 170 273 136 471 367 550 640 45 157 47 191 52
900 3 437 1 714 -6 782 -35 346 -170 554 -446 686 -190 91 -427 156 -654 179
-135 13 -420 11 -546 -5z m812 -1952 c-4 -202 -8 -250 -26 -318 -54 -201 -142
-310 -321 -400 -324 -161 -675 -112 -776 109 -75 164 -40 395 75 499 98 89
189 120 548 192 263 52 388 89 458 134 17 11 34 20 39 20 4 1 6 -106 3 -236z"/>
<path d="M23645 9363 c-81 -7 -262 -45 -355 -75 -221 -70 -407 -184 -576 -352
-239 -238 -362 -499 -430 -911 -26 -157 -27 -592 -1 -750 91 -558 314 -874
785 -1112 285 -145 614 -208 953 -184 214 16 343 41 516 102 254 90 487 265
662 499 65 87 156 259 167 318 l7 32 -445 0 -444 0 -38 -50 c-64 -85 -174
-153 -296 -184 -90 -23 -304 -32 -414 -17 -359 48 -592 306 -631 699 l-7 72
1173 0 1172 0 -7 228 c-8 259 -19 377 -48 512 -62 292 -192 540 -389 745 -200
208 -436 334 -739 395 -177 35 -433 49 -615 33z m420 -707 c33 -9 98 -35 145
-58 198 -97 321 -287 354 -545 l7 -53 -725 0 -725 0 6 38 c30 192 142 405 267
505 66 52 173 102 261 121 90 20 324 15 410 -8z"/>
<path d="M27300 9358 c-217 -20 -473 -89 -644 -173 -432 -211 -696 -578 -798
-1110 -21 -106 -22 -141 -25 -1067 l-4 -958 420 0 419 0 5 888 c4 961 5 981
61 1158 49 155 152 273 300 343 140 67 191 76 439 76 l217 0 0 428 0 427 -147
-1 c-82 -1 -191 -6 -243 -11z"/>
<path d="M29180 9359 c-607 -70 -1055 -427 -1243 -989 -73 -220 -107 -451
-107 -735 0 -360 60 -645 190 -902 248 -488 642 -717 1290 -749 398 -19 759
71 1029 256 304 208 553 609 587 948 l7 62 -449 0 -449 0 -18 -93 c-22 -113
-87 -252 -151 -323 -91 -102 -222 -147 -426 -148 -210 0 -335 46 -457 170
-124 125 -197 310 -223 569 -16 146 -8 452 14 582 62 362 230 576 504 639 96
22 268 20 366 -5 193 -50 315 -182 378 -409 l23 -82 448 0 447 0 0 31 c0 53
-48 272 -81 370 -105 314 -279 511 -573 649 -182 86 -382 138 -612 160 -127
12 -386 11 -494 -1z"/>
</g>
</svg>
