<?xml version="1.0" standalone="no"?>
<!DOCTYPE svg PUBLIC "-//W3C//DTD SVG 20010904//EN"
 "http://www.w3.org/TR/2001/REC-SVG-20010904/DTD/svg10.dtd">
<svg version="1.0" xmlns="http://www.w3.org/2000/svg"
 width="1200.000000pt" height="242.000000pt" viewBox="0 0 1200.000000 242.000000"
 preserveAspectRatio="xMidYMid meet">

<g transform="translate(0.000000,242.000000) scale(0.100000,-0.100000)"
fill="#000000" stroke="none">
<path d="M910 2404 c-146 -31 -275 -103 -402 -223 -105 -99 -176 -192 -247
-321 -157 -286 -237 -579 -256 -940 -15 -271 41 -510 153 -662 133 -180 298
-255 540 -246 135 6 212 30 309 96 192 131 349 352 709 994 54 98 101 178 104
178 3 0 91 -143 195 -317 292 -489 397 -638 549 -780 133 -125 262 -174 456
-175 88 -1 117 3 183 26 219 74 346 240 409 530 42 193 25 548 -37 811 -127
536 -449 939 -820 1026 -28 6 -93 11 -145 11 -186 1 -349 -79 -530 -261 -58
-59 -127 -136 -155 -173 -27 -37 -52 -67 -55 -67 -3 0 -41 44 -85 96 -97 116
-222 228 -329 293 -165 102 -373 142 -546 104z m1832 -323 c313 -121 552 -650
550 -1221 0 -221 -28 -325 -104 -396 -53 -51 -95 -67 -173 -68 -169 -2 -253
98 -680 804 -81 135 -179 293 -216 352 -38 59 -69 111 -69 116 0 19 144 209
208 275 76 77 142 123 216 149 68 25 189 19 268 -11z m-1545 -83 c104 -38 243
-165 372 -338 70 -93 70 -94 54 -120 -10 -14 -101 -155 -203 -315 -355 -552
-447 -681 -549 -762 -151 -119 -339 -87 -419 72 -73 146 -80 390 -20 680 65
320 220 607 394 731 70 50 100 63 169 74 65 10 137 3 202 -22z"/>
<path d="M4410 1195 l0 -1145 180 0 180 0 0 877 c0 528 4 873 9 867 5 -5 159
-278 342 -606 l332 -598 176 0 176 1 335 604 335 605 3 -875 2 -875 185 0 185
0 0 1145 0 1145 -223 0 -222 0 -385 -695 c-217 -394 -388 -691 -392 -687 -5 5
-179 317 -387 693 l-378 684 -226 3 -227 2 0 -1145z"/>
<path d="M9260 2010 l0 -250 -170 0 -170 0 0 -155 0 -155 169 0 170 0 4 -492
c3 -425 6 -502 21 -557 56 -213 188 -338 399 -378 94 -18 294 -13 387 9 l55
13 3 151 3 151 -58 -9 c-32 -5 -110 -8 -174 -6 -108 3 -119 5 -165 33 -36 23
-56 45 -77 85 -38 76 -46 183 -47 633 l0 367 260 0 260 0 0 155 0 155 -260 0
-260 0 0 250 0 250 -175 0 -175 0 0 -250z"/>
<path d="M7925 1794 c-16 -2 -64 -12 -105 -20 -309 -66 -546 -316 -615 -648
-82 -403 58 -793 355 -985 142 -92 292 -132 491 -133 261 0 491 77 672 226
l47 38 -72 87 c-39 47 -83 101 -98 119 l-28 34 -56 -46 c-124 -101 -261 -146
-440 -146 -119 0 -185 13 -262 51 -74 37 -156 119 -197 196 -33 64 -67 160
-67 190 0 11 115 13 632 13 l631 0 -7 135 c-7 153 -25 260 -60 361 -90 267
-270 442 -515 505 -74 19 -246 32 -306 23z m188 -319 c167 -35 273 -145 322
-330 8 -32 15 -70 15 -82 l0 -23 -450 0 c-366 0 -450 2 -450 13 0 30 34 126
67 189 64 122 170 206 296 233 81 18 118 18 200 0z"/>
<path d="M10985 1790 c-278 -44 -503 -227 -606 -493 -56 -145 -72 -249 -66
-432 7 -223 48 -368 147 -518 145 -223 355 -338 620 -338 209 0 356 57 493
192 l77 77 0 -114 0 -114 175 0 175 0 0 855 0 855 -175 0 -175 0 0 -111 0
-112 -40 46 c-78 88 -206 164 -322 192 -82 19 -228 26 -303 15z m348 -340
c119 -37 231 -131 288 -241 17 -35 19 -61 19 -305 0 -313 0 -314 -110 -424
-100 -101 -222 -150 -370 -150 -256 0 -428 156 -476 431 -19 106 -14 248 10
339 50 181 171 310 336 356 74 20 227 17 303 -6z"/>
</g>
</svg>
