<?xml version="1.0" standalone="no"?>
<!DOCTYPE svg PUBLIC "-//W3C//DTD SVG 20010904//EN"
 "http://www.w3.org/TR/2001/REC-SVG-20010904/DTD/svg10.dtd">
<svg version="1.0" xmlns="http://www.w3.org/2000/svg"
 width="800.000000pt" height="442.000000pt" viewBox="0 0 800.000000 442.000000"
 preserveAspectRatio="xMidYMid meet">

<g transform="translate(0.000000,442.000000) scale(0.100000,-0.100000)"
fill="#000000" stroke="none">
<path d="M2266 4410 c-290 -37 -544 -154 -756 -348 l-65 -59 95 -7 c655 -51
1076 -444 1201 -1121 26 -144 37 -680 38 -1892 l1 -873 525 0 525 0 0 1223 c0
1437 -6 1613 -66 1899 -131 625 -517 1049 -1056 1158 -116 24 -334 34 -442 20z"/>
<path d="M4170 3098 c0 -1219 6 -1493 36 -1726 74 -579 351 -1021 773 -1232
96 -48 252 -96 376 -115 142 -23 388 -16 515 14 239 55 489 190 640 345 l44
46 -64 0 c-36 0 -108 7 -160 15 -557 84 -942 466 -1059 1050 -41 207 -43 252
-48 1558 l-6 1267 -523 0 -524 0 0 -1222z"/>
<path d="M6940 2860 c0 -959 -4 -1494 -11 -1558 -37 -342 -140 -604 -321 -814
l-49 -58 83 0 c354 0 759 189 1001 466 189 217 287 436 333 744 20 132 20 176
17 1688 l-3 992 -525 0 -525 0 0 -1460z"/>
<path d="M1225 3989 c-318 -41 -613 -192 -839 -429 -226 -239 -346 -524 -375
-895 -4 -60 -6 -660 -3 -1333 l5 -1222 523 0 523 0 4 1518 c2 1392 4 1525 20
1612 53 288 142 495 293 681 l65 79 -73 -1 c-40 -1 -104 -6 -143 -10z"/>
</g>
</svg>
