<?xml version="1.0" standalone="no"?>
<!DOCTYPE svg PUBLIC "-//W3C//DTD SVG 20010904//EN"
 "http://www.w3.org/TR/2001/REC-SVG-20010904/DTD/svg10.dtd">
<svg version="1.0" xmlns="http://www.w3.org/2000/svg"
 width="330.000000pt" height="104.000000pt" viewBox="0 0 330.000000 104.000000"
 preserveAspectRatio="xMidYMid meet">

<g transform="translate(0.000000,104.000000) scale(0.100000,-0.100000)"
fill="#000000" stroke="none">
<path d="M570 879 c0 -2 -9 -179 -20 -393 -11 -215 -18 -391 -17 -392 1 -2 61
10 132 25 122 26 130 29 132 52 2 13 -19 166 -45 339 l-47 315 -40 3 c-26 2
-49 12 -67 30 -16 14 -28 24 -28 21z"/>
<path d="M2834 806 c-46 -20 -82 -64 -95 -118 -11 -42 -16 -48 -40 -48 -22 0
-28 -6 -33 -31 -10 -52 -8 -59 20 -59 19 0 24 -4 20 -17 -3 -10 -15 -70 -26
-133 -12 -63 -24 -125 -27 -138 -5 -21 -2 -22 50 -22 64 0 58 -9 82 125 35
192 32 185 71 185 28 0 36 5 44 26 19 49 13 64 -25 64 -29 0 -35 4 -35 20 0
31 44 70 78 70 26 0 31 4 36 35 4 20 4 40 1 45 -9 14 -85 12 -121 -4z"/>
<path d="M1350 802 c0 -4 -22 -125 -50 -268 -27 -142 -50 -267 -50 -276 0 -15
9 -18 53 -18 l53 0 23 117 c12 64 29 129 37 145 29 55 85 71 99 28 5 -16 -12
-123 -41 -263 -6 -27 -5 -27 50 -27 64 0 54 -16 86 150 26 136 26 190 0 223
-36 45 -116 43 -166 -4 l-22 -21 14 74 c8 40 17 90 20 111 l7 37 -57 0 c-31 0
-56 -4 -56 -8z"/>
<path d="M2567 799 c-51 -30 -35 -109 22 -109 54 0 82 68 43 103 -21 19 -39
21 -65 6z"/>
<path d="M1105 641 c-75 -19 -115 -63 -115 -127 0 -45 3 -49 90 -123 29 -25
33 -33 24 -48 -12 -19 -79 -25 -120 -10 -17 6 -22 2 -32 -30 -6 -21 -8 -41 -4
-45 15 -15 103 -25 147 -17 80 15 125 62 125 131 0 37 -24 70 -83 112 -27 20
-37 34 -35 49 3 20 9 22 63 22 58 0 60 1 69 33 5 20 5 36 0 42 -13 13 -95 20
-129 11z"/>
<path d="M1816 635 c-76 -27 -138 -111 -151 -206 -19 -129 71 -215 196 -188
99 21 172 125 173 244 0 76 -23 118 -79 145 -48 23 -85 25 -139 5z m94 -94
c35 -67 -20 -221 -79 -221 -47 0 -65 65 -40 154 20 73 93 114 119 67z"/>
<path d="M2280 639 c-14 -6 -35 -20 -47 -31 l-23 -21 0 26 c0 26 -3 27 -49 27
l-50 0 -6 -47 c-7 -47 -80 -445 -90 -491 -5 -22 -4 -23 52 -20 l57 3 15 81 16
80 35 -7 c82 -18 170 33 215 125 47 97 44 206 -9 255 -27 26 -81 35 -116 20z
m28 -101 c15 -15 15 -69 0 -120 -22 -73 -83 -117 -125 -90 -27 17 24 201 59
215 23 10 54 7 66 -5z"/>
<path d="M2515 628 c-2 -7 -18 -89 -35 -183 -17 -93 -34 -178 -36 -188 -5 -16
0 -18 52 -15 l58 3 33 170 c17 94 34 182 37 198 5 27 5 27 -50 27 -35 0 -56
-4 -59 -12z"/>
<path d="M2940 628 c0 -7 14 -85 30 -173 16 -88 30 -171 30 -184 0 -26 -70
-101 -95 -101 -23 0 -27 -17 -14 -60 15 -50 31 -51 95 -8 68 46 130 143 228
353 l84 180 -55 3 c-30 2 -57 1 -60 -1 -2 -3 -26 -65 -53 -138 -27 -74 -49
-129 -50 -122 0 28 -21 220 -26 241 -4 20 -10 22 -59 22 -37 0 -55 -4 -55 -12z"/>
</g>
</svg>
